ply
format ascii 1.0
comment Created by Blender 2.62 (sub 0) - www.blender.org, source file: 'male.blend'
element vertex 67
property float x
property float y
property float z
property float nx
property float ny
property float nz
property float s
property float t
property uchar red
property uchar green
property uchar blue
element face 23
property list uchar uint vertex_indices
end_header
0.150830 -1.222730 -0.171227 0.467845 -0.114402 0.876375 0.879053 0.126031 255 255 255
0.883585 0.224573 -0.373471 0.467845 -0.114402 0.876375 0.888578 0.184974 255 255 255
0.488719 0.740659 -0.095304 0.467845 -0.114402 0.876375 0.873765 0.127353 255 255 255
0.883585 0.224573 -0.373471 0.701971 -0.434280 -0.564479 0.023256 0.387892 255 255 255
0.150830 -1.222730 -0.171227 0.701971 -0.434280 -0.564479 0.075786 0.416482 255 255 255
-0.878944 -1.427913 -1.293970 0.701971 -0.434280 -0.564479 0.075786 0.272058 255 255 255
-0.419071 -0.313539 -1.070933 0.478954 -0.022011 -0.877564 0.023256 0.306648 255 255 255
0.883585 0.224573 -0.373471 0.478954 -0.022011 -0.877564 0.023256 0.387892 255 255 255
-0.878944 -1.427913 -1.293970 0.478954 -0.022011 -0.877564 0.075786 0.272058 255 255 255
0.883585 0.224573 -0.373471 0.100448 0.688177 -0.718556 0.220765 0.387560 255 255 255
-0.419071 -0.313539 -1.070933 0.100448 0.688177 -0.718556 0.220844 0.301235 255 255 255
-0.054017 0.538393 -0.203987 0.100448 0.688177 -0.718556 0.168343 0.412481 255 255 255
0.488719 0.740659 -0.095304 -0.000426 0.474209 -0.880412 0.182679 0.434703 255 255 255
0.883585 0.224573 -0.373471 -0.000426 0.474209 -0.880412 0.220765 0.387560 255 255 255
-0.054017 0.538393 -0.203987 -0.000426 0.474209 -0.880412 0.168343 0.412481 255 255 255
-0.688800 -0.237063 0.068515 -0.612512 -0.635950 0.469464 0.124325 0.424044 255 255 255
-0.791895 -0.421680 -0.316080 -0.612512 -0.635950 0.469464 0.121099 0.385164 255 255 255
0.150830 -1.222730 -0.171227 -0.612512 -0.635950 0.469464 0.075786 0.416482 255 255 255
0.150830 -1.222730 -0.171227 -0.573357 -0.618970 0.536784 0.075786 0.416482 255 255 255
0.224691 -0.900429 0.279314 -0.573357 -0.618970 0.536784 0.090616 0.471002 255 255 255
-0.688800 -0.237063 0.068515 -0.573357 -0.618970 0.536784 0.124325 0.424044 255 255 255
-0.688800 -0.237063 0.068515 -0.586079 0.610246 0.533020 0.124325 0.424044 255 255 255
-0.226619 -0.047624 0.359818 -0.586079 0.610246 0.533020 0.127551 0.462925 255 255 255
0.265692 0.543410 0.224469 -0.586079 0.610246 0.533020 0.157652 0.467968 255 255 255
0.265692 0.543410 0.224469 -0.608948 0.655460 0.446715 0.157652 0.467968 255 255 255
-0.054017 0.538393 -0.203987 -0.608948 0.655460 0.446715 0.168343 0.412481 255 255 255
-0.688800 -0.237063 0.068515 -0.608948 0.655460 0.446715 0.124325 0.424044 255 255 255
-0.791895 -0.421680 -0.316080 -0.785324 0.613370 -0.083921 0.121099 0.385164 255 255 255
-0.688800 -0.237063 0.068515 -0.785324 0.613370 -0.083921 0.124325 0.424044 255 255 255
-0.054017 0.538393 -0.203987 -0.785324 0.613370 -0.083921 0.168343 0.412481 255 255 255
-0.226619 -0.047624 0.359818 -0.416860 -0.301551 0.857493 0.127551 0.462925 255 255 255
-0.688800 -0.237063 0.068515 -0.416860 -0.301551 0.857493 0.124325 0.424044 255 255 255
0.224691 -0.900429 0.279314 -0.416860 -0.301551 0.857493 0.090616 0.471002 255 255 255
-0.791895 -0.421680 -0.316080 -0.636307 0.506959 0.581469 0.121099 0.385164 255 255 255
-1.163215 0.000703 -1.090678 -0.636307 0.506959 0.581469 0.168343 0.293171 255 255 255
-1.567722 -0.688729 -0.932246 -0.636307 0.506959 0.581469 0.121099 0.303923 255 255 255
-0.791895 -0.421680 -0.316080 -0.680049 0.455594 0.574428 0.121099 0.385164 255 255 255
-0.054017 0.538393 -0.203987 -0.680049 0.455594 0.574428 0.168343 0.412481 255 255 255
-1.163215 0.000703 -1.090678 -0.680049 0.455594 0.574428 0.168343 0.293171 255 255 255
-0.791895 -0.421680 -0.316080 -0.327658 -0.643731 0.691556 0.121099 0.385164 255 255 255
-1.567722 -0.688729 -0.932246 -0.327658 -0.643731 0.691556 0.121099 0.303923 255 255 255
-0.878944 -1.427913 -1.293970 -0.327658 -0.643731 0.691556 0.075786 0.272058 255 255 255
0.150830 -1.222730 -0.171227 -0.562624 -0.550620 0.616662 0.075786 0.416482 255 255 255
-0.791895 -0.421680 -0.316080 -0.562624 -0.550620 0.616662 0.121099 0.385164 255 255 255
-0.878944 -1.427913 -1.293970 -0.562624 -0.550620 0.616662 0.075786 0.272058 255 255 255
-0.054017 0.538393 -0.203987 0.282130 0.622216 -0.730240 0.168343 0.412481 255 255 255
-0.419071 -0.313539 -1.070933 0.282130 0.622216 -0.730240 0.220844 0.301235 255 255 255
-1.163215 0.000703 -1.090678 0.282130 0.622216 -0.730240 0.168343 0.293171 255 255 255
-0.054017 0.538393 -0.203987 -0.383692 0.881256 0.275988 0.168343 0.412481 255 255 255
0.265692 0.543410 0.224469 -0.383692 0.881256 0.275988 0.157652 0.467968 255 255 255
0.488719 0.740659 -0.095304 -0.383692 0.881256 0.275988 0.182679 0.434703 255 255 255
-1.567722 -0.688729 -0.932246 -0.475729 -0.702386 0.529467 0.121099 0.303923 255 255 255
-2.101383 -0.546136 -1.222581 -0.475729 -0.702386 0.529467 0.121099 0.259923 255 255 255
-0.878944 -1.427913 -1.293970 -0.475729 -0.702386 0.529467 0.075786 0.272058 255 255 255
-0.878944 -1.427913 -1.293970 0.719841 -0.161965 -0.674978 0.075786 0.272058 255 255 255
-0.696518 -0.082873 -1.422170 0.719841 -0.161965 -0.674978 0.023256 0.260058 255 255 255
-0.419071 -0.313539 -1.070933 0.719841 -0.161965 -0.674978 0.023256 0.306648 255 255 255
-0.696518 -0.082873 -1.422170 0.375794 0.873747 0.308779 0.221415 0.251037 255 255 255
-1.601922 0.305135 -1.418204 0.375794 0.873747 0.308779 0.168343 0.245171 255 255 255
-1.163215 0.000703 -1.090678 0.375794 0.873747 0.308779 0.168343 0.293171 255 255 255
-0.419071 -0.313539 -1.070933 0.365518 0.883899 0.291751 0.220844 0.301235 255 255 255
-0.696518 -0.082873 -1.422170 0.365518 0.883899 0.291751 0.221415 0.251037 255 255 255
-1.163215 0.000703 -1.090678 0.365518 0.883899 0.291751 0.168343 0.293171 255 255 255
-1.163215 0.000703 -1.090678 -0.352710 0.401208 0.845357 0.168343 0.293171 255 255 255
-2.101383 -0.546136 -1.222581 -0.352710 0.401208 0.845357 0.121099 0.259923 255 255 255
-1.567722 -0.688729 -0.932246 -0.352710 0.401208 0.845357 0.121099 0.303923 255 255 255
-1.601922 0.305135 -1.418204 -0.352710 0.401208 0.845357 0.168343 0.245171 255 255 255
3 0 1 2
3 3 4 5
3 6 7 8
3 9 10 11
3 12 13 14
3 15 16 17
3 18 19 20
3 21 22 23
3 24 25 26
3 27 28 29
3 30 31 32
3 33 34 35
3 36 37 38
3 39 40 41
3 42 43 44
3 45 46 47
3 48 49 50
3 51 52 53
3 54 55 56
3 57 58 59
3 60 61 62
3 63 64 65
3 63 66 64
