ply
format ascii 1.0
comment Created by Blender 2.62 (sub 0) - www.blender.org, source file: 'male.blend'
element vertex 42
property float x
property float y
property float z
property float nx
property float ny
property float nz
property float s
property float t
property uchar red
property uchar green
property uchar blue
element face 14
property list uchar uint vertex_indices
end_header
-0.649349 -0.249679 -0.392391 -0.720137 0.566142 -0.401107 0.728501 0.763776 255 255 255
-0.716565 0.353610 0.579798 -0.720137 0.566142 -0.401107 0.721919 0.664069 255 255 255
0.063861 0.948749 0.018651 -0.720137 0.566142 -0.401107 0.694697 0.724597 255 255 255
-0.649349 -0.249679 -0.392391 -0.610448 0.556575 -0.563540 0.728501 0.763776 255 255 255
0.063861 0.948749 0.018651 -0.610448 0.556575 -0.563540 0.694697 0.724597 255 255 255
0.959886 0.049389 -1.840203 -0.610448 0.556575 -0.563540 0.686946 0.903060 255 255 255
0.395928 -0.593054 -1.802983 -0.624500 0.514145 -0.587924 0.713165 0.903060 255 255 255
-0.649349 -0.249679 -0.392391 -0.624500 0.514145 -0.587924 0.728501 0.763776 255 255 255
0.959886 0.049389 -1.840203 -0.624500 0.514145 -0.587924 0.686946 0.903060 255 255 255
-0.040505 -0.087906 0.672194 -0.536088 -0.733386 0.418037 0.606461 0.664315 255 255 255
-0.716565 0.353610 0.579798 -0.536088 -0.733386 0.418037 0.572828 0.671592 255 255 255
-0.649349 -0.249679 -0.392391 -0.536088 -0.733386 0.418037 0.572828 0.771396 255 255 255
0.325062 -1.073080 -0.267537 -0.609816 -0.653709 0.448095 0.614317 0.761760 255 255 255
-0.040505 -0.087906 0.672194 -0.609816 -0.653709 0.448095 0.606461 0.664315 255 255 255
-0.649349 -0.249679 -0.392391 -0.609816 -0.653709 0.448095 0.572828 0.771396 255 255 255
0.325062 -1.073080 -0.267537 -0.602759 -0.753229 -0.263301 0.614317 0.761760 255 255 255
-0.649349 -0.249679 -0.392391 -0.602759 -0.753229 -0.263301 0.572828 0.771396 255 255 255
0.395928 -0.593054 -1.802983 -0.602759 -0.753229 -0.263301 0.585718 0.903060 255 255 255
0.650885 -0.967767 -1.808632 -0.810023 -0.548000 -0.208706 0.617652 0.903060 255 255 255
0.325062 -1.073080 -0.267537 -0.810023 -0.548000 -0.208706 0.614317 0.761760 255 255 255
0.395928 -0.593054 -1.802983 -0.810023 -0.548000 -0.208706 0.585718 0.903060 255 255 255
1.160955 -0.174825 -0.406435 0.583229 -0.436839 0.684847 0.651964 0.772368 255 255 255
-0.040505 -0.087906 0.672194 0.583229 -0.436839 0.684847 0.606461 0.664315 255 255 255
0.325062 -1.073080 -0.267537 0.583229 -0.436839 0.684847 0.614317 0.761760 255 255 255
1.160955 -0.174825 -0.406435 0.595398 -0.402051 0.695598 0.651964 0.772368 255 255 255
0.539448 0.617986 0.583783 0.595398 -0.402051 0.695598 0.651964 0.668625 255 255 255
-0.040505 -0.087906 0.672194 0.595398 -0.402051 0.695598 0.606461 0.664315 255 255 255
1.160955 -0.174825 -0.406435 0.736045 -0.667940 0.109972 0.651964 0.772368 255 255 255
0.325062 -1.073080 -0.267537 0.736045 -0.667940 0.109972 0.614317 0.761760 255 255 255
0.650885 -0.967767 -1.808632 0.736045 -0.667940 0.109972 0.617652 0.903060 255 255 255
1.268994 -0.596478 -1.803035 0.491460 -0.822483 0.286338 0.651964 0.903060 255 255 255
1.160955 -0.174825 -0.406435 0.491460 -0.822483 0.286338 0.651964 0.772368 255 255 255
0.650885 -0.967767 -1.808632 0.491460 -0.822483 0.286338 0.617652 0.903060 255 255 255
0.063861 0.948749 0.018651 0.678429 0.719190 -0.150001 0.694697 0.724597 255 255 255
0.539448 0.617986 0.583783 0.678429 0.719190 -0.150001 0.651964 0.668625 255 255 255
1.160955 -0.174825 -0.406435 0.678429 0.719190 -0.150001 0.651964 0.772368 255 255 255
0.959886 0.049389 -1.840203 0.901748 0.428147 -0.059505 0.686946 0.903060 255 255 255
1.160955 -0.174825 -0.406435 0.901748 0.428147 -0.059505 0.651964 0.772368 255 255 255
1.268994 -0.596478 -1.803035 0.901748 0.428147 -0.059505 0.651964 0.903060 255 255 255
0.959886 0.049389 -1.840203 0.717056 0.696965 0.008434 0.686946 0.903060 255 255 255
0.063861 0.948749 0.018651 0.717056 0.696965 0.008434 0.694697 0.724597 255 255 255
1.160955 -0.174825 -0.406435 0.717056 0.696965 0.008434 0.651964 0.772368 255 255 255
3 0 1 2
3 3 4 5
3 6 7 8
3 9 10 11
3 12 13 14
3 15 16 17
3 18 19 20
3 21 22 23
3 24 25 26
3 27 28 29
3 30 31 32
3 33 34 35
3 36 37 38
3 39 40 41
