ply
format ascii 1.0
comment Created by Blender 2.62 (sub 0) - www.blender.org, source file: 'male.blend'
element vertex 222
property float x
property float y
property float z
property float nx
property float ny
property float nz
property float s
property float t
property uchar red
property uchar green
property uchar blue
element face 74
property list uchar uint vertex_indices
end_header
-2.159423 -0.015953 0.600396 -0.955425 0.173656 -0.238761 0.873765 0.127353 255 255 255
-2.157770 -0.532039 0.218418 -0.955425 0.173656 -0.238761 0.888578 0.184974 255 255 255
-2.497312 -1.979342 0.524473 -0.955425 0.173656 -0.238761 0.879053 0.126031 255 255 255
2.497312 -1.979342 0.524473 0.955425 0.173656 -0.238761 0.646622 0.126031 255 255 255
2.157770 -0.532039 0.218418 0.955425 0.173656 -0.238761 0.637097 0.184974 255 255 255
2.159423 -0.015953 0.600396 0.955425 0.173656 -0.238761 0.651910 0.127353 255 255 255
1.846694 0.289619 -0.520173 0.508739 -0.460987 -0.727101 0.649538 0.263812 255 255 255
2.157770 -0.532039 0.218418 0.508739 -0.460987 -0.727101 0.637097 0.184974 255 255 255
1.107403 -0.975288 -0.235480 0.508739 -0.460987 -0.727101 0.582691 0.231696 255 255 255
1.107403 -0.975288 -0.235480 0.426873 -0.090133 -0.899809 0.582691 0.231696 255 255 255
2.157770 -0.532039 0.218418 0.426873 -0.090133 -0.899809 0.637097 0.184974 255 255 255
2.497312 -1.979342 0.524473 0.426873 -0.090133 -0.899809 0.646622 0.126031 255 255 255
2.159423 -0.015953 0.600396 0.848240 0.313317 -0.426991 0.651910 0.127353 255 255 255
2.157770 -0.532039 0.218418 0.848240 0.313317 -0.426991 0.637097 0.184974 255 255 255
1.454231 1.361434 0.210193 0.848240 0.313317 -0.426991 0.680590 0.165170 255 255 255
2.157770 -0.532039 0.218418 0.937370 0.348257 -0.007372 0.637097 0.184974 255 255 255
1.846694 0.289619 -0.520173 0.937370 0.348257 -0.007372 0.649538 0.263812 255 255 255
1.454231 1.361434 0.210193 0.937370 0.348257 -0.007372 0.680590 0.165170 255 255 255
-2.157770 -0.532039 0.218418 -0.508739 -0.460987 -0.727101 0.888578 0.184974 255 255 255
-1.846694 0.289619 -0.520173 -0.508739 -0.460987 -0.727101 0.876137 0.263812 255 255 255
-1.107403 -0.975288 -0.235480 -0.508739 -0.460987 -0.727101 0.942984 0.231696 255 255 255
-2.497312 -1.979342 0.524473 -0.426873 -0.090133 -0.899809 0.879053 0.126031 255 255 255
-2.157770 -0.532039 0.218418 -0.426873 -0.090133 -0.899809 0.888578 0.184974 255 255 255
-1.107403 -0.975288 -0.235480 -0.426873 -0.090133 -0.899809 0.942984 0.231696 255 255 255
-2.157770 -0.532039 0.218418 -0.848240 0.313317 -0.426991 0.888578 0.184974 255 255 255
-2.159423 -0.015953 0.600396 -0.848240 0.313317 -0.426991 0.873765 0.127353 255 255 255
-1.454231 1.361434 0.210193 -0.848240 0.313317 -0.426991 0.845085 0.165170 255 255 255
-1.454231 1.361434 0.210193 -0.937370 0.348257 -0.007372 0.845085 0.165170 255 255 255
-1.846694 0.289619 -0.520173 -0.937370 0.348257 -0.007372 0.876137 0.263812 255 255 255
-2.157770 -0.532039 0.218418 -0.937370 0.348257 -0.007372 0.888578 0.184974 255 255 255
1.235614 -1.866500 1.112690 -0.048929 -0.734423 0.676926 0.620105 0.071665 255 255 255
0.000000 -1.517896 1.401592 -0.048929 -0.734423 0.676926 0.534169 0.037372 255 255 255
0.000000 -2.141612 0.724898 -0.048929 -0.734423 0.676926 0.534344 0.117697 255 255 255
0.000000 -2.141612 0.724898 0.048929 -0.734423 0.676926 0.991331 0.117697 255 255 255
0.000000 -1.517896 1.401592 0.048929 -0.734423 0.676926 0.991506 0.037372 255 255 255
-1.235614 -1.866500 1.112690 0.048929 -0.734423 0.676926 0.905570 0.071665 255 255 255
1.107403 -0.975288 -0.235480 -0.076566 -0.985919 -0.148663 0.582691 0.231696 255 255 255
-0.000000 -0.775030 -0.993229 -0.076566 -0.985919 -0.148663 0.534344 0.320431 255 255 255
0.943704 -0.829678 -1.116843 -0.076566 -0.985919 -0.148663 0.575544 0.321319 255 255 255
-0.943704 -0.829678 -1.116843 0.076566 -0.985919 -0.148663 0.950131 0.321319 255 255 255
-0.000000 -0.775030 -0.993229 0.076566 -0.985919 -0.148663 0.991331 0.320431 255 255 255
-1.107403 -0.975288 -0.235480 0.076566 -0.985919 -0.148663 0.942984 0.231696 255 255 255
0.000000 -0.984826 -0.237479 0.008781 -0.963525 -0.267474 0.534344 0.231933 255 255 255
-0.000000 -0.775030 -0.993229 0.008781 -0.963525 -0.267474 0.534344 0.320431 255 255 255
1.107403 -0.975288 -0.235480 0.008781 -0.963525 -0.267474 0.582691 0.231696 255 255 255
-0.000000 -0.775030 -0.993229 -0.008781 -0.963525 -0.267474 0.991331 0.320431 255 255 255
0.000000 -0.984826 -0.237479 -0.008781 -0.963525 -0.267474 0.991331 0.231933 255 255 255
-1.107403 -0.975288 -0.235480 -0.008781 -0.963525 -0.267474 0.942984 0.231696 255 255 255
1.926174 0.436871 -1.129924 0.862345 -0.506225 -0.009846 0.649829 0.325369 255 255 255
1.846694 0.289619 -0.520173 0.862345 -0.506225 -0.009846 0.649538 0.263812 255 255 255
1.107403 -0.975288 -0.235480 0.862345 -0.506225 -0.009846 0.582691 0.231696 255 255 255
-1.107403 -0.975288 -0.235480 -0.862345 -0.506225 -0.009846 0.942984 0.231696 255 255 255
-1.846694 0.289619 -0.520173 -0.862345 -0.506225 -0.009846 0.876137 0.263812 255 255 255
-1.926174 0.436871 -1.129924 -0.862345 -0.506225 -0.009846 0.875847 0.325369 255 255 255
1.926174 0.436871 -1.129924 0.765698 -0.596443 -0.240755 0.649829 0.325369 255 255 255
1.107403 -0.975288 -0.235480 0.765698 -0.596443 -0.240755 0.582691 0.231696 255 255 255
0.943704 -0.829678 -1.116843 0.765698 -0.596443 -0.240755 0.575544 0.321319 255 255 255
-0.943704 -0.829678 -1.116843 -0.765698 -0.596443 -0.240755 0.950131 0.321319 255 255 255
-1.107403 -0.975288 -0.235480 -0.765698 -0.596443 -0.240755 0.942984 0.231696 255 255 255
-1.926174 0.436871 -1.129924 -0.765698 -0.596443 -0.240755 0.875847 0.325369 255 255 255
1.059626 1.265134 -1.133234 0.656814 0.685923 -0.313217 0.714247 0.327734 255 255 255
1.332192 1.512565 -0.019807 0.656814 0.685923 -0.313217 0.701749 0.190943 255 255 255
1.926174 0.436871 -1.129924 0.656814 0.685923 -0.313217 0.649829 0.325369 255 255 255
-1.926174 0.436871 -1.129924 -0.656814 0.685923 -0.313217 0.875847 0.325369 255 255 255
-1.332192 1.512565 -0.019807 -0.656814 0.685923 -0.313217 0.823927 0.190943 255 255 255
-1.059626 1.265134 -1.133234 -0.656814 0.685923 -0.313217 0.811429 0.327734 255 255 255
1.332192 1.512565 -0.019807 0.929944 0.310918 0.196302 0.701749 0.190943 255 255 255
1.846694 0.289619 -0.520173 0.929944 0.310918 0.196302 0.649538 0.263812 255 255 255
1.926174 0.436871 -1.129924 0.929944 0.310918 0.196302 0.649829 0.325369 255 255 255
-1.926174 0.436871 -1.129924 -0.929944 0.310918 0.196302 0.875847 0.325369 255 255 255
-1.846694 0.289619 -0.520173 -0.929944 0.310918 0.196302 0.876137 0.263812 255 255 255
-1.332192 1.512565 -0.019807 -0.929944 0.310918 0.196302 0.823927 0.190943 255 255 255
0.000000 1.735690 -1.129924 0.403794 0.908533 0.107322 0.762834 0.327321 255 255 255
0.000000 1.599614 0.022025 0.403794 0.908533 0.107322 0.762834 0.183511 255 255 255
1.059626 1.265134 -1.133234 0.403794 0.908533 0.107322 0.714247 0.327734 255 255 255
-1.059626 1.265134 -1.133234 -0.403794 0.908533 0.107322 0.811429 0.327734 255 255 255
0.000000 1.599614 0.022025 -0.403794 0.908533 0.107322 0.762841 0.183511 255 255 255
0.000000 1.735690 -1.129924 -0.403794 0.908533 0.107322 0.762841 0.327322 255 255 255
0.000000 1.599614 0.022025 0.056276 0.971634 -0.229697 0.762834 0.183511 255 255 255
1.332192 1.512565 -0.019807 0.056276 0.971634 -0.229697 0.701749 0.190943 255 255 255
1.059626 1.265134 -1.133234 0.056276 0.971634 -0.229697 0.714247 0.327734 255 255 255
-1.059626 1.265134 -1.133234 -0.056276 0.971634 -0.229697 0.811429 0.327734 255 255 255
-1.332192 1.512565 -0.019807 -0.056276 0.971634 -0.229697 0.823927 0.190943 255 255 255
0.000000 1.599614 0.022025 -0.056276 0.971634 -0.229697 0.762841 0.183511 255 255 255
0.000000 1.599614 0.022025 0.071582 0.951099 0.300476 0.762834 0.183511 255 255 255
0.000000 1.533936 0.229915 0.071582 0.951099 0.300476 0.762834 0.148285 255 255 255
1.332192 1.512565 -0.019807 0.071582 0.951099 0.300476 0.701749 0.190943 255 255 255
-1.332192 1.512565 -0.019807 -0.071582 0.951099 0.300476 0.823927 0.190943 255 255 255
0.000000 1.533936 0.229915 -0.071582 0.951099 0.300476 0.762841 0.148286 255 255 255
0.000000 1.599614 0.022025 -0.071582 0.951099 0.300476 0.762841 0.183511 255 255 255
0.000000 1.533936 0.229915 0.108417 0.856227 0.505096 0.762834 0.148285 255 255 255
1.454231 1.361434 0.210193 0.108417 0.856227 0.505096 0.680590 0.165170 255 255 255
1.332192 1.512565 -0.019807 0.108417 0.856227 0.505096 0.701749 0.190943 255 255 255
-1.332192 1.512565 -0.019807 -0.108417 0.856227 0.505096 0.823927 0.190943 255 255 255
-1.454231 1.361434 0.210193 -0.108417 0.856227 0.505096 0.845085 0.165170 255 255 255
0.000000 1.533936 0.229915 -0.108417 0.856227 0.505096 0.762841 0.148286 255 255 255
0.000000 1.533936 0.229915 0.076738 0.725156 -0.684295 0.762834 0.148285 255 255 255
0.000000 1.611498 0.312109 0.076738 0.725156 -0.684295 0.762834 0.140255 255 255 255
1.454231 1.361434 0.210193 0.076738 0.725156 -0.684295 0.680590 0.165170 255 255 255
-1.454231 1.361434 0.210193 -0.076738 0.725156 -0.684295 0.845085 0.165170 255 255 255
0.000000 1.611498 0.312109 -0.076738 0.725156 -0.684295 0.762841 0.140255 255 255 255
0.000000 1.533936 0.229915 -0.076738 0.725156 -0.684295 0.762841 0.148286 255 255 255
0.000000 1.611498 0.312109 0.096536 0.801770 -0.589784 0.762834 0.140255 255 255 255
1.547118 1.462958 0.363412 0.096536 0.801770 -0.589784 0.675337 0.144965 255 255 255
1.454231 1.361434 0.210193 0.096536 0.801770 -0.589784 0.680590 0.165170 255 255 255
-1.454231 1.361434 0.210193 -0.096536 0.801770 -0.589784 0.845085 0.165170 255 255 255
-1.547118 1.462958 0.363412 -0.096536 0.801770 -0.589784 0.850338 0.144965 255 255 255
0.000000 1.611498 0.312109 -0.096536 0.801770 -0.589784 0.762841 0.140255 255 255 255
0.000000 1.611498 0.312109 0.023539 0.536523 0.843557 0.762834 0.140255 255 255 255
-0.000000 0.715029 0.882285 0.023539 0.536523 0.843557 0.762834 0.087273 255 255 255
1.547118 1.462958 0.363412 0.023539 0.536523 0.843557 0.675337 0.144965 255 255 255
-1.547118 1.462958 0.363412 -0.023539 0.536523 0.843557 0.850338 0.144965 255 255 255
-0.000000 0.715029 0.882285 -0.023539 0.536523 0.843557 0.762841 0.087273 255 255 255
0.000000 1.611498 0.312109 -0.023539 0.536523 0.843557 0.762841 0.140255 255 255 255
-0.000000 0.715029 0.882285 0.093530 0.429621 0.898153 0.762834 0.087273 255 255 255
1.552587 0.052812 1.037369 0.093530 0.429621 0.898153 0.691643 0.072875 255 255 255
1.547118 1.462958 0.363412 0.093530 0.429621 0.898153 0.675337 0.144965 255 255 255
-1.547118 1.462958 0.363412 -0.093530 0.429621 0.898153 0.850338 0.144965 255 255 255
-1.552587 0.052812 1.037369 -0.093530 0.429621 0.898153 0.834033 0.072875 255 255 255
-0.000000 0.715029 0.882285 -0.093530 0.429621 0.898153 0.762841 0.087273 255 255 255
-0.000000 0.715029 0.882285 0.170444 0.396204 0.902203 0.762834 0.087273 255 255 255
0.000000 0.053397 1.172843 0.170444 0.396204 0.902203 0.762834 0.055986 255 255 255
0.788888 -0.595698 1.308857 0.170444 0.396204 0.902203 0.726661 0.039028 255 255 255
-0.788888 -0.595698 1.308857 -0.170444 0.396204 0.902203 0.799014 0.039029 255 255 255
0.000000 0.053397 1.172843 -0.170444 0.396204 0.902203 0.762841 0.055986 255 255 255
-0.000000 0.715029 0.882285 -0.170444 0.396204 0.902203 0.762841 0.087273 255 255 255
-0.000000 0.715029 0.882285 0.049259 0.335780 0.940652 0.762834 0.087273 255 255 255
0.788888 -0.595698 1.308857 0.049259 0.335780 0.940652 0.726661 0.039028 255 255 255
1.552587 0.052812 1.037369 0.049259 0.335780 0.940652 0.691643 0.072875 255 255 255
-1.552587 0.052812 1.037369 -0.049259 0.335780 0.940652 0.834033 0.072875 255 255 255
-0.788888 -0.595698 1.308857 -0.049259 0.335780 0.940652 0.799014 0.039029 255 255 255
-0.000000 0.715029 0.882285 -0.049259 0.335780 0.940652 0.762841 0.087273 255 255 255
1.846694 0.289619 -0.520173 0.879499 0.442092 -0.176171 0.649538 0.263812 255 255 255
1.332192 1.512565 -0.019807 0.879499 0.442092 -0.176171 0.701749 0.190943 255 255 255
1.454231 1.361434 0.210193 0.879499 0.442092 -0.176171 0.680590 0.165170 255 255 255
-1.454231 1.361434 0.210193 -0.879499 0.442092 -0.176171 0.845085 0.165170 255 255 255
-1.332192 1.512565 -0.019807 -0.879499 0.442092 -0.176171 0.823927 0.190943 255 255 255
-1.846694 0.289619 -0.520173 -0.879499 0.442092 -0.176171 0.876137 0.263812 255 255 255
2.049335 -0.634583 1.121708 0.143037 -0.101687 0.984480 0.655062 0.045136 255 255 255
0.788888 -0.595698 1.308857 0.143037 -0.101687 0.984480 0.610854 0.030034 255 255 255
1.235614 -1.866500 1.112690 0.143037 -0.101687 0.984480 0.620105 0.071665 255 255 255
-1.235614 -1.866500 1.112690 -0.143037 -0.101687 0.984480 0.905570 0.071665 255 255 255
-0.788888 -0.595698 1.308857 -0.143037 -0.101687 0.984480 0.914821 0.030034 255 255 255
-2.049335 -0.634583 1.121708 -0.143037 -0.101687 0.984480 0.870613 0.045136 255 255 255
0.788888 -0.595698 1.308857 0.206017 -0.078149 0.975423 0.610854 0.030034 255 255 255
0.000000 -1.517896 1.401592 0.206017 -0.078149 0.975423 0.534169 0.037372 255 255 255
1.235614 -1.866500 1.112690 0.206017 -0.078149 0.975423 0.620105 0.071665 255 255 255
-1.235614 -1.866500 1.112690 -0.206017 -0.078149 0.975423 0.905570 0.071665 255 255 255
0.000000 -1.517896 1.401592 -0.206017 -0.078149 0.975423 0.991506 0.037372 255 255 255
-0.788888 -0.595698 1.308857 -0.206017 -0.078149 0.975423 0.914821 0.030034 255 255 255
2.423451 -1.657041 0.975015 0.054330 -0.122302 0.991005 0.090640 0.527119 255 255 255
2.874761 -0.804237 1.055519 0.054330 -0.122302 0.991005 0.127574 0.535196 255 255 255
2.049335 -0.634583 1.121708 0.054330 -0.122302 0.991005 0.137517 0.500380 255 255 255
-2.049335 -0.634583 1.121708 -0.054330 -0.122302 0.991005 0.137494 0.497741 255 255 255
-2.874761 -0.804237 1.055519 -0.054330 -0.122302 0.991005 0.127551 0.462925 255 255 255
-2.423451 -1.657041 0.975015 -0.054330 -0.122302 0.991005 0.090616 0.471002 255 255 255
2.423451 -1.657041 0.975015 0.130915 -0.093699 0.986956 0.090640 0.527119 255 255 255
2.049335 -0.634583 1.121708 0.130915 -0.093699 0.986956 0.137517 0.500380 255 255 255
1.235614 -1.866500 1.112690 0.130915 -0.093699 0.986956 0.075810 0.499310 255 255 255
-1.235614 -1.866500 1.112690 -0.130915 -0.093699 0.986956 0.075786 0.498812 255 255 255
-2.049335 -0.634583 1.121708 -0.130915 -0.093699 0.986956 0.137494 0.497741 255 255 255
-2.423451 -1.657041 0.975015 -0.130915 -0.093699 0.986956 0.090616 0.471002 255 255 255
2.159423 -0.015953 0.600396 0.329843 0.888794 0.318195 0.182703 0.563419 255 255 255
1.552587 0.052812 1.037369 0.329843 0.888794 0.318195 0.171972 0.500380 255 255 255
2.382450 -0.213202 0.920170 0.329843 0.888794 0.318195 0.157676 0.530153 255 255 255
-2.382450 -0.213202 0.920170 -0.329843 0.888794 0.318195 0.157652 0.467968 255 255 255
-1.552587 0.052812 1.037369 -0.329843 0.888794 0.318195 0.171948 0.497741 255 255 255
-2.159423 -0.015953 0.600396 -0.329843 0.888794 0.318195 0.182679 0.434703 255 255 255
2.382450 -0.213202 0.920170 0.220015 0.273869 0.936263 0.157676 0.530153 255 255 255
1.552587 0.052812 1.037369 0.220015 0.273869 0.936263 0.171972 0.500380 255 255 255
2.049335 -0.634583 1.121708 0.220015 0.273869 0.936263 0.137517 0.500380 255 255 255
-2.049335 -0.634583 1.121708 -0.220015 0.273869 0.936263 0.137494 0.497741 255 255 255
-1.552587 0.052812 1.037369 -0.220015 0.273869 0.936263 0.171948 0.497741 255 255 255
-2.382450 -0.213202 0.920170 -0.220015 0.273869 0.936263 0.157652 0.467968 255 255 255
0.000000 -2.141612 0.724898 0.089776 -0.924700 0.369959 0.534344 0.117697 255 255 255
2.497312 -1.979342 0.524473 0.089776 -0.924700 0.369959 0.646622 0.126031 255 255 255
1.235614 -1.866500 1.112690 0.089776 -0.924700 0.369959 0.620105 0.071665 255 255 255
-1.235614 -1.866500 1.112690 -0.089776 -0.924700 0.369959 0.905570 0.071665 255 255 255
-2.497312 -1.979342 0.524473 -0.089776 -0.924700 0.369959 0.879053 0.126031 255 255 255
0.000000 -2.141612 0.724898 -0.089776 -0.924700 0.369959 0.991331 0.117697 255 255 255
0.000000 -2.141612 0.724898 0.006896 -0.639537 -0.768729 0.534344 0.117697 255 255 255
0.000000 -0.984826 -0.237479 0.006896 -0.639537 -0.768729 0.534344 0.231933 255 255 255
1.107403 -0.975288 -0.235480 0.006896 -0.639537 -0.768729 0.582691 0.231696 255 255 255
-1.107403 -0.975288 -0.235480 -0.006896 -0.639537 -0.768729 0.942984 0.231696 255 255 255
0.000000 -0.984826 -0.237479 -0.006896 -0.639537 -0.768729 0.991331 0.231933 255 255 255
0.000000 -2.141612 0.724898 -0.006896 -0.639537 -0.768729 0.991331 0.117697 255 255 255
1.107403 -0.975288 -0.235480 -0.022298 -0.622799 -0.782064 0.582691 0.231696 255 255 255
2.497312 -1.979342 0.524473 -0.022298 -0.622799 -0.782064 0.646622 0.126031 255 255 255
0.000000 -2.141612 0.724898 -0.022298 -0.622799 -0.782064 0.534344 0.117697 255 255 255
0.000000 -2.141612 0.724898 0.022298 -0.622799 -0.782064 0.991331 0.117697 255 255 255
-2.497312 -1.979342 0.524473 0.022298 -0.622799 -0.782064 0.879053 0.126031 255 255 255
-1.107403 -0.975288 -0.235480 0.022298 -0.622799 -0.782064 0.942984 0.231696 255 255 255
2.049335 -0.634583 1.121708 0.143121 0.332673 0.932118 0.137517 0.500380 255 255 255
2.874761 -0.804237 1.055519 0.143121 0.332673 0.932118 0.127574 0.535196 255 255 255
2.382450 -0.213202 0.920170 0.143121 0.332673 0.932118 0.157676 0.530153 255 255 255
-2.382450 -0.213202 0.920170 -0.143121 0.332673 0.932118 0.157652 0.467968 255 255 255
-2.874761 -0.804237 1.055519 -0.143121 0.332673 0.932118 0.127551 0.462925 255 255 255
-2.049335 -0.634583 1.121708 -0.143121 0.332673 0.932118 0.137494 0.497741 255 255 255
2.497312 -1.979342 0.524473 0.206019 -0.779575 0.591454 0.075810 0.581640 255 255 255
2.423451 -1.657041 0.975015 0.206019 -0.779575 0.591454 0.090640 0.527119 255 255 255
1.235614 -1.866500 1.112690 0.206019 -0.779575 0.591454 0.075810 0.499310 255 255 255
-1.235614 -1.866500 1.112690 -0.206019 -0.779575 0.591454 0.075786 0.498812 255 255 255
-2.423451 -1.657041 0.975015 -0.206019 -0.779575 0.591454 0.090616 0.471002 255 255 255
-2.497312 -1.979342 0.524473 -0.206019 -0.779575 0.591454 0.075786 0.416482 255 255 255
1.547118 1.462958 0.363412 0.572388 0.355395 0.738963 0.675337 0.144965 255 255 255
1.552587 0.052812 1.037369 0.572388 0.355395 0.738963 0.691643 0.072875 255 255 255
2.159423 -0.015953 0.600396 0.572388 0.355395 0.738963 0.651910 0.127353 255 255 255
-2.159423 -0.015953 0.600396 -0.572388 0.355395 0.738963 0.873765 0.127353 255 255 255
-1.552587 0.052812 1.037369 -0.572388 0.355395 0.738963 0.834033 0.072875 255 255 255
-1.547118 1.462958 0.363412 -0.572388 0.355395 0.738963 0.850338 0.144965 255 255 255
1.552587 0.052812 1.037369 0.149885 0.226399 0.962433 0.691643 0.072875 255 255 255
0.788888 -0.595698 1.308857 0.149885 0.226399 0.962433 0.726661 0.039028 255 255 255
2.049335 -0.634583 1.121708 0.149885 0.226399 0.962433 0.655459 0.044912 255 255 255
-2.049335 -0.634583 1.121708 -0.149885 0.226399 0.962433 0.870216 0.044912 255 255 255
-0.788888 -0.595698 1.308857 -0.149885 0.226399 0.962433 0.799014 0.039029 255 255 255
-1.552587 0.052812 1.037369 -0.149885 0.226399 0.962433 0.834033 0.072875 255 255 255
1.454231 1.361434 0.210193 0.763435 0.218696 -0.607732 0.680590 0.165170 255 255 255
1.547118 1.462958 0.363412 0.763435 0.218696 -0.607732 0.675337 0.144965 255 255 255
2.159423 -0.015953 0.600396 0.763435 0.218696 -0.607732 0.651910 0.127353 255 255 255
-2.159423 -0.015953 0.600396 -0.763435 0.218696 -0.607732 0.873765 0.127353 255 255 255
-1.547118 1.462958 0.363412 -0.763435 0.218696 -0.607732 0.850338 0.144965 255 255 255
-1.454231 1.361434 0.210193 -0.763435 0.218696 -0.607732 0.845085 0.165170 255 255 255
3 0 1 2
3 3 4 5
3 6 7 8
3 9 10 11
3 12 13 14
3 15 16 17
3 18 19 20
3 21 22 23
3 24 25 26
3 27 28 29
3 30 31 32
3 33 34 35
3 36 37 38
3 39 40 41
3 42 43 44
3 45 46 47
3 48 49 50
3 51 52 53
3 54 55 56
3 57 58 59
3 60 61 62
3 63 64 65
3 66 67 68
3 69 70 71
3 72 73 74
3 75 76 77
3 78 79 80
3 81 82 83
3 84 85 86
3 87 88 89
3 90 91 92
3 93 94 95
3 96 97 98
3 99 100 101
3 102 103 104
3 105 106 107
3 108 109 110
3 111 112 113
3 114 115 116
3 117 118 119
3 120 121 122
3 123 124 125
3 126 127 128
3 129 130 131
3 132 133 134
3 135 136 137
3 138 139 140
3 141 142 143
3 144 145 146
3 147 148 149
3 150 151 152
3 153 154 155
3 156 157 158
3 159 160 161
3 162 163 164
3 165 166 167
3 168 169 170
3 171 172 173
3 174 175 176
3 177 178 179
3 180 181 182
3 183 184 185
3 186 187 188
3 189 190 191
3 192 193 194
3 195 196 197
3 198 199 200
3 201 202 203
3 204 205 206
3 207 208 209
3 210 211 212
3 213 214 215
3 216 217 218
3 219 220 221
