ply
format ascii 1.0
comment Created by Blender 2.62 (sub 0) - www.blender.org, source file: 'male.blend'
element vertex 52
property float x
property float y
property float z
property float nx
property float ny
property float nz
property float s
property float t
property uchar red
property uchar green
property uchar blue
element face 18
property list uchar uint vertex_indices
end_header
0.175032 0.654680 0.038189 0.403246 -0.388705 0.828433 0.838730 0.903060 9 9 9
0.567459 0.421875 -0.262061 0.403246 -0.388705 0.828433 0.810435 0.935684 9 9 9
0.756612 1.329810 0.071875 0.403246 -0.388705 0.828433 0.816356 0.998845 9 9 9
0.175032 0.654680 0.038189 -0.192515 -0.503544 0.842248 0.838730 0.903060 9 9 9
-0.453967 0.951504 0.071875 -0.192515 -0.503544 0.842248 0.863358 0.998845 9 9 9
-0.529628 0.421875 -0.262061 -0.192515 -0.503544 0.842248 0.876743 0.931782 9 9 9
0.567459 0.421875 -0.262061 0.000000 0.000000 -1.000000 0.810435 0.935684 9 9 9
0.302646 -0.561720 -0.262061 0.000000 0.000000 -1.000000 0.798448 0.902855 9 9 9
-0.075660 -0.713043 -0.262061 0.000000 0.000000 -1.000000 0.768693 0.902755 9 9 9
-0.529628 0.421875 -0.262061 -0.000000 0.000000 -1.000000 0.766350 0.935968 9 9 9
0.567459 0.421875 -0.262061 -0.113664 0.363726 -0.924545 0.810435 0.935684 9 9 9
-0.453967 0.951504 0.071875 -0.113664 0.363726 -0.924545 0.766350 0.998845 9 9 9
0.756612 1.329810 0.071875 -0.113664 0.363726 -0.924545 0.816356 0.998845 9 9 9
0.567459 0.421875 -0.262061 -0.000000 0.533347 -0.845897 0.810435 0.935684 9 9 9
-0.529628 0.421875 -0.262061 -0.000000 0.533347 -0.845897 0.766350 0.935968 9 9 9
-0.453967 0.951504 0.071875 -0.000000 0.533347 -0.845897 0.766350 0.998845 9 9 9
0.756612 1.329810 0.071875 0.021282 -0.068102 0.997451 0.816356 0.998845 9 9 9
-0.453967 0.951504 0.071875 0.021282 -0.068102 0.997451 0.863358 0.998845 9 9 9
0.175032 0.654680 0.038189 0.021282 -0.068102 0.997451 0.838730 0.903060 9 9 9
0.567459 0.421875 -0.262061 -0.720498 0.077891 -0.689069 0.000000 1.000000 9 9 9
0.210819 -0.312514 0.027833 -0.720498 0.077891 -0.689069 1.000000 1.000000 9 9 9
0.257718 -0.001777 0.013919 -0.720498 0.077891 -0.689069 1.000000 0.000000 9 9 9
0.302646 -0.561720 -0.262061 0.853420 -0.229767 0.467848 0.000000 1.000000 9 9 9
0.567459 0.421875 -0.262061 0.853420 -0.229767 0.467848 1.000000 1.000000 9 9 9
0.210819 -0.312514 0.027833 0.853420 -0.229767 0.467848 1.000000 0.000000 9 9 9
-0.075660 -0.713043 -0.262061 -0.902858 -0.361144 0.233287 0.000000 1.000000 9 9 9
-0.162870 -0.307757 0.027833 -0.902858 -0.361144 0.233287 1.000000 0.000000 9 9 9
-0.529628 0.421875 -0.262061 -0.902858 -0.361144 0.233287 1.000000 1.000000 9 9 9
-0.529628 0.421875 -0.262061 -0.672515 -0.044534 0.738742 0.000000 1.000000 9 9 9
-0.162870 -0.307757 0.027833 -0.672515 -0.044534 0.738742 1.000000 1.000000 9 9 9
-0.200701 0.032719 0.013919 -0.672515 -0.044534 0.738742 1.000000 0.000000 9 9 9
0.302646 -0.561720 -0.262061 0.273891 -0.684724 0.675379 0.000000 1.000000 9 9 9
0.210819 -0.312514 0.027833 0.273891 -0.684724 0.675379 1.000000 0.000000 9 9 9
-0.075660 -0.713043 -0.262061 0.273891 -0.684724 0.675379 1.000000 1.000000 9 9 9
-0.075660 -0.713043 -0.262061 -0.007419 -0.582814 0.812572 0.000000 1.000000 9 9 9
0.210819 -0.312514 0.027833 -0.007419 -0.582814 0.812572 1.000000 0.000000 9 9 9
-0.162870 -0.307757 0.027833 -0.007419 -0.582814 0.812572 1.000000 1.000000 9 9 9
-0.162870 -0.307757 0.027833 0.000521 0.040890 0.999164 0.000000 1.000000 9 9 9
0.210819 -0.312514 0.027833 0.000521 0.040890 0.999164 1.000000 1.000000 9 9 9
-0.200701 0.032719 0.013919 0.000521 0.040890 0.999164 1.000000 0.000000 9 9 9
0.210819 -0.312514 0.027833 -0.003328 -0.044231 -0.999016 0.000000 1.000000 9 9 9
-0.200701 0.032719 0.013919 -0.003328 -0.044231 -0.999016 1.000000 1.000000 9 9 9
0.257718 -0.001777 0.013919 -0.003328 -0.044231 -0.999016 1.000000 0.000000 9 9 9
0.567459 0.421875 -0.262061 0.625429 0.049990 0.778678 0.000000 1.000000 9 9 9
0.175032 0.654680 0.038189 0.625429 0.049990 0.778678 1.000000 1.000000 9 9 9
0.257718 -0.001777 0.013919 0.625429 0.049990 0.778678 1.000000 0.000000 9 9 9
0.175032 0.654680 0.038189 -0.002807 -0.037299 0.999300 0.000000 1.000000 9 9 9
-0.200701 0.032719 0.013919 -0.002807 -0.037299 0.999300 1.000000 1.000000 9 9 9
0.257718 -0.001777 0.013919 -0.002807 -0.037299 0.999300 1.000000 0.000000 9 9 9
-0.529628 0.421875 -0.262061 -0.445801 0.235614 0.863567 0.000000 1.000000 9 9 9
-0.200701 0.032719 0.013919 -0.445801 0.235614 0.863567 1.000000 0.000000 9 9 9
0.175032 0.654680 0.038189 -0.445801 0.235614 0.863567 1.000000 1.000000 9 9 255
3 0 1 2
3 3 4 5
3 6 7 8
3 9 6 8
3 10 11 12
3 13 14 15
3 16 17 18
3 19 20 21
3 22 23 24
3 25 26 27
3 28 29 30
3 31 32 33
3 34 35 36
3 37 38 39
3 40 41 42
3 43 44 45
3 46 47 48
3 49 50 51
