ply
format ascii 1.0
comment Created by Blender 2.62 (sub 0) - www.blender.org, source file: 'male.blend'
element vertex 24
property float x
property float y
property float z
property float nx
property float ny
property float nz
property float s
property float t
property uchar red
property uchar green
property uchar blue
element face 8
property list uchar uint vertex_indices
end_header
0.634280 -1.049607 -0.041709 0.424016 -0.142750 -0.894334 0.075786 0.272058 255 255 255
-0.914065 0.239420 -0.981550 0.424016 -0.142750 -0.894334 0.115328 0.133562 255 255 255
0.816705 0.295434 -0.169909 0.424016 -0.142750 -0.894334 0.023256 0.260058 255 255 255
-0.914065 0.239420 -0.981550 0.424914 -0.110287 -0.898490 0.115328 0.133562 255 255 255
-0.803069 1.011340 -1.023809 0.424914 -0.110287 -0.898490 0.059602 0.123662 255 255 255
0.816705 0.295434 -0.169909 0.424914 -0.110287 -0.898490 0.023256 0.260058 255 255 255
0.816705 0.295434 -0.169909 0.393880 0.918869 0.023220 0.221415 0.251037 255 255 255
-0.803069 1.011340 -1.023809 0.393880 0.918869 0.023220 0.198764 0.121451 255 255 255
-0.088698 0.683441 -0.165943 0.393880 0.918869 0.023220 0.168343 0.245171 255 255 255
-0.803069 1.011340 -1.023809 0.359551 0.931407 0.056600 0.198764 0.121451 255 255 255
-1.201394 1.164337 -1.011160 0.359551 0.931407 0.056600 0.168343 0.126027 255 255 255
-0.088698 0.683441 -0.165943 0.359551 0.931407 0.056600 0.168343 0.245171 255 255 255
-0.588160 -0.167830 0.029680 -0.508301 -0.843064 -0.175706 0.121099 0.259923 255 255 255
-1.496690 0.582931 -0.944284 -0.508301 -0.843064 -0.175706 0.131225 0.128049 255 255 255
-0.914065 0.239420 -0.981550 -0.508301 -0.843064 -0.175706 0.115328 0.133562 255 255 255
-0.914065 0.239420 -0.981550 -0.584885 -0.800023 -0.133691 0.115328 0.133562 255 255 255
0.634280 -1.049607 -0.041709 -0.584885 -0.800023 -0.133691 0.075786 0.272058 255 255 255
-0.588160 -0.167830 0.029680 -0.584885 -0.800023 -0.133691 0.121099 0.259923 255 255 255
-0.088698 0.683441 -0.165943 -0.474111 0.334483 0.814457 0.168343 0.245171 255 255 255
-1.201394 1.164337 -1.011160 -0.474111 0.334483 0.814457 0.168343 0.126027 255 255 255
-1.496690 0.582931 -0.944284 -0.474111 0.334483 0.814457 0.131225 0.128049 255 255 255
-0.088698 0.683441 -0.165943 -0.457337 0.445235 0.769811 0.168343 0.245171 255 255 255
-1.496690 0.582931 -0.944284 -0.457337 0.445235 0.769811 0.131225 0.128049 255 255 255
-0.588160 -0.167830 0.029680 -0.457337 0.445235 0.769811 0.121099 0.259923 255 255 255
3 0 1 2
3 3 4 5
3 6 7 8
3 9 10 11
3 12 13 14
3 15 16 17
3 18 19 20
3 21 22 23
