ply
format ascii 1.0
comment Created by Blender 2.62 (sub 0) - www.blender.org, source file: 'male.blend'
element vertex 282
property float x
property float y
property float z
property float nx
property float ny
property float nz
property float s
property float t
property uchar red
property uchar green
property uchar blue
element face 94
property list uchar uint vertex_indices
end_header
0.285351 1.678752 -0.028435 0.467287 0.737804 -0.487122 0.224907 0.469987 255 255 255
0.306266 1.958003 0.414587 0.467287 0.737804 -0.487122 0.341588 0.467961 255 255 255
0.847536 1.661404 0.484583 0.467287 0.737804 -0.487122 0.360023 0.415528 255 255 255
0.847536 1.661404 0.484583 0.662861 0.207675 -0.719366 0.360023 0.415528 255 255 255
0.763689 0.764160 0.148295 0.662861 0.207675 -0.719366 0.271454 0.413026 255 255 255
0.285351 1.678752 -0.028435 0.662861 0.207675 -0.719366 0.224907 0.469987 255 255 255
-0.847536 1.661404 0.484583 -0.467287 0.737804 -0.487122 0.360023 0.579728 255 255 255
-0.306266 1.958003 0.414587 -0.467287 0.737804 -0.487122 0.341588 0.527296 255 255 255
-0.285352 1.678752 -0.028435 -0.467287 0.737804 -0.487122 0.224907 0.525270 255 255 255
-0.285352 1.678752 -0.028435 -0.662861 0.207675 -0.719366 0.224907 0.525270 255 255 255
-0.763689 0.764160 0.148295 -0.662861 0.207675 -0.719366 0.271454 0.582231 255 255 255
-0.847536 1.661404 0.484583 -0.662861 0.207675 -0.719366 0.360023 0.579728 255 255 255
0.763689 0.764160 0.148295 0.837101 0.121672 -0.533346 0.271454 0.413026 255 255 255
0.847536 1.661404 0.484583 0.837101 0.121672 -0.533346 0.360023 0.415528 255 255 255
1.107608 0.357971 0.595422 0.837101 0.121672 -0.533346 0.363853 0.313262 255 255 255
1.107608 0.357971 0.595422 0.736927 -0.110193 -0.666930 0.363853 0.313262 255 255 255
0.761973 0.158865 0.246408 0.736927 -0.110193 -0.666930 0.262241 0.324283 255 255 255
0.763689 0.764160 0.148295 0.736927 -0.110193 -0.666930 0.271454 0.413026 255 255 255
-0.763689 0.764160 0.148295 -0.736927 -0.110193 -0.666930 0.271454 0.582231 255 255 255
-0.761973 0.158865 0.246408 -0.736927 -0.110193 -0.666930 0.262240 0.670975 255 255 255
-1.107608 0.357971 0.595422 -0.736927 -0.110193 -0.666930 0.363853 0.681996 255 255 255
-0.847536 1.661404 0.484583 -0.837101 0.121672 -0.533346 0.360023 0.579728 255 255 255
-0.763689 0.764160 0.148295 -0.837101 0.121672 -0.533346 0.271454 0.582231 255 255 255
-1.107608 0.357971 0.595422 -0.837101 0.121672 -0.533346 0.363853 0.681996 255 255 255
-0.763689 0.764160 0.148295 -0.121423 -0.126729 -0.984478 0.271454 0.582231 255 255 255
-0.285352 1.678752 -0.028435 -0.121423 -0.126729 -0.984478 0.224907 0.525270 255 255 255
-0.000000 0.906432 0.035789 -0.121423 -0.126729 -0.984478 0.198424 0.526713 255 255 255
-0.761973 0.158865 0.246408 -0.114782 -0.159262 -0.980541 0.262240 0.670975 255 255 255
-0.763689 0.764160 0.148295 -0.114782 -0.159262 -0.980541 0.271454 0.582231 255 255 255
-0.000000 0.906432 0.035789 -0.114782 -0.159262 -0.980541 0.198424 0.526713 255 255 255
0.763689 0.764160 0.148295 0.114782 -0.159262 -0.980541 0.271454 0.413026 255 255 255
0.761973 0.158865 0.246408 0.114782 -0.159262 -0.980541 0.262241 0.324283 255 255 255
-0.000000 0.906432 0.035789 0.114782 -0.159262 -0.980541 0.198425 0.468545 255 255 255
0.285351 1.678752 -0.028435 0.121423 -0.126729 -0.984478 0.224907 0.469987 255 255 255
0.763689 0.764160 0.148295 0.121423 -0.126729 -0.984478 0.271454 0.413026 255 255 255
-0.000000 0.906432 0.035789 0.121423 -0.126729 -0.984478 0.198425 0.468545 255 255 255
1.124235 0.295249 0.367152 0.911791 0.329980 -0.244439 0.312962 0.956060 255 255 255
0.998379 0.664924 0.396735 0.911791 0.329980 -0.244439 0.364708 0.944801 255 255 255
1.080662 0.649252 0.682504 0.911791 0.329980 -0.244439 0.362514 0.836043 255 255 255
-1.080662 0.649252 0.682504 -0.911791 0.329980 -0.244439 0.431811 0.836203 255 255 255
-0.998379 0.664924 0.396735 -0.911791 0.329980 -0.244439 0.429618 0.944961 255 255 255
-1.124235 0.295249 0.367152 -0.911791 0.329980 -0.244439 0.481363 0.956219 255 255 255
1.295377 0.075024 0.708247 0.911791 0.329980 -0.244438 0.282136 0.826247 255 255 255
1.124235 0.295249 0.367152 0.911791 0.329980 -0.244438 0.312962 0.956060 255 255 255
1.080662 0.649252 0.682504 0.911791 0.329980 -0.244438 0.362514 0.836043 255 255 255
-1.080662 0.649252 0.682504 -0.911791 0.329980 -0.244438 0.431811 0.836203 255 255 255
-1.124235 0.295249 0.367152 -0.911791 0.329980 -0.244438 0.481363 0.956219 255 255 255
-1.295378 0.075024 0.708247 -0.911791 0.329980 -0.244438 0.512189 0.826407 255 255 255
1.080774 0.279878 0.885147 0.947094 -0.294253 -0.128170 0.431090 0.319079 255 255 255
0.805796 -0.619377 0.917753 0.947094 -0.294253 -0.128170 0.440113 0.271090 255 255 255
0.819213 -0.439092 0.602997 0.947094 -0.294253 -0.128170 0.380866 0.247710 255 255 255
-0.819213 -0.439092 0.602997 -0.947094 -0.294253 -0.128170 0.380866 0.747548 255 255 255
-0.805796 -0.619377 0.917753 -0.947094 -0.294253 -0.128170 0.440113 0.724168 255 255 255
-1.080774 0.279878 0.885147 -0.947094 -0.294253 -0.128170 0.431089 0.676179 255 255 255
1.080774 0.279878 0.885147 0.940316 -0.340271 -0.004626 0.431090 0.319079 255 255 255
0.819213 -0.439092 0.602997 0.940316 -0.340271 -0.004626 0.380866 0.247710 255 255 255
1.107608 0.357971 0.595422 0.940316 -0.340271 -0.004626 0.363853 0.313262 255 255 255
-1.107608 0.357971 0.595422 -0.940316 -0.340271 -0.004626 0.363853 0.681996 255 255 255
-0.819213 -0.439092 0.602997 -0.940316 -0.340271 -0.004626 0.380866 0.747548 255 255 255
-1.080774 0.279878 0.885147 -0.940316 -0.340271 -0.004626 0.431089 0.676179 255 255 255
-0.000000 -1.048677 0.681828 0.597229 -0.776751 0.199940 0.354162 0.195517 255 255 255
0.819213 -0.439092 0.602997 0.597229 -0.776751 0.199940 0.380866 0.247710 255 255 255
-0.000000 -0.979556 0.950357 0.597229 -0.776751 0.199940 0.447405 0.208189 255 255 255
-0.000000 -0.979556 0.950357 -0.597229 -0.776751 0.199940 0.447405 0.787069 255 255 255
-0.819213 -0.439092 0.602997 -0.597229 -0.776751 0.199940 0.380866 0.747548 255 255 255
-0.000000 -1.048677 0.681828 -0.597229 -0.776751 0.199940 0.354161 0.799741 255 255 255
0.819213 -0.439092 0.602997 0.348043 -0.819808 -0.454731 0.380866 0.247710 255 255 255
0.805796 -0.619377 0.917753 0.348043 -0.819808 -0.454731 0.440113 0.271090 255 255 255
-0.000000 -0.979556 0.950357 0.348043 -0.819808 -0.454731 0.447405 0.208189 255 255 255
-0.000000 -0.979556 0.950357 -0.348043 -0.819808 -0.454731 0.447405 0.787069 255 255 255
-0.805796 -0.619377 0.917753 -0.348043 -0.819808 -0.454731 0.440113 0.724168 255 255 255
-0.819213 -0.439092 0.602997 -0.348043 -0.819808 -0.454731 0.380866 0.747548 255 255 255
0.620501 0.027304 1.164468 0.174983 -0.306785 0.935555 0.484030 0.302276 255 255 255
-0.000000 -0.979556 0.950357 0.174983 -0.306785 0.935555 0.447405 0.208189 255 255 255
0.805796 -0.619377 0.917753 0.174983 -0.306785 0.935555 0.440113 0.271090 255 255 255
-0.805796 -0.619377 0.917753 -0.174983 -0.306785 0.935555 0.440113 0.724168 255 255 255
-0.000000 -0.979556 0.950357 -0.174983 -0.306785 0.935555 0.447405 0.787069 255 255 255
-0.620501 0.027304 1.164468 -0.174983 -0.306785 0.935555 0.484029 0.692982 255 255 255
0.620501 0.027304 1.164468 0.570276 -0.145064 0.808543 0.484030 0.302276 255 255 255
0.805796 -0.619377 0.917753 0.570276 -0.145064 0.808543 0.440113 0.271090 255 255 255
1.080774 0.279878 0.885147 0.570276 -0.145064 0.808543 0.431090 0.319079 255 255 255
-1.080774 0.279878 0.885147 -0.570276 -0.145064 0.808543 0.431089 0.676179 255 255 255
-0.805796 -0.619377 0.917753 -0.570276 -0.145064 0.808543 0.440113 0.724168 255 255 255
-0.620501 0.027304 1.164468 -0.570276 -0.145064 0.808543 0.484029 0.692982 255 255 255
0.761973 0.158865 0.246408 0.757178 -0.279574 -0.590356 0.262241 0.324283 255 255 255
1.107608 0.357971 0.595422 0.757178 -0.279574 -0.590356 0.363853 0.313262 255 255 255
0.819213 -0.439092 0.602997 0.757178 -0.279574 -0.590356 0.380866 0.247710 255 255 255
-0.819213 -0.439092 0.602997 -0.757178 -0.279574 -0.590356 0.380866 0.747548 255 255 255
-1.107608 0.357971 0.595422 -0.757178 -0.279574 -0.590356 0.363853 0.681996 255 255 255
-0.761973 0.158865 0.246408 -0.757178 -0.279574 -0.590356 0.262240 0.670975 255 255 255
0.761973 0.158865 0.246408 0.271780 -0.473582 -0.837768 0.262241 0.324283 255 255 255
0.819213 -0.439092 0.602997 0.271780 -0.473582 -0.837768 0.380866 0.247710 255 255 255
-0.000000 -1.048677 0.681828 0.271780 -0.473582 -0.837768 0.354162 0.195517 255 255 255
-0.000000 -1.048677 0.681828 -0.271780 -0.473582 -0.837768 0.354161 0.799741 255 255 255
-0.819213 -0.439092 0.602997 -0.271780 -0.473582 -0.837768 0.380866 0.747548 255 255 255
-0.761973 0.158865 0.246408 -0.271780 -0.473582 -0.837768 0.262240 0.670975 255 255 255
1.295377 0.075024 0.708247 -0.530731 -0.808123 -0.255465 0.282136 0.826247 255 255 255
0.834599 0.425541 0.556715 -0.530731 -0.808123 -0.255465 0.290130 0.989333 255 255 255
1.124235 0.295249 0.367152 -0.530731 -0.808123 -0.255465 0.312962 0.956060 255 255 255
-1.124235 0.295249 0.367152 0.530731 -0.808122 -0.255465 0.481363 0.956219 255 255 255
-0.834599 0.425541 0.556715 0.530731 -0.808122 -0.255465 0.504195 0.989471 255 255 255
-1.295378 0.075024 0.708247 0.530731 -0.808122 -0.255465 0.512189 0.826407 255 255 255
1.124235 0.295249 0.367152 -0.584397 -0.134925 -0.800172 0.312962 0.956060 255 255 255
0.834599 0.425541 0.556715 -0.584397 -0.134925 -0.800172 0.290130 0.989333 255 255 255
0.998379 0.664924 0.396735 -0.584397 -0.134925 -0.800172 0.364708 0.944801 255 255 255
-0.998379 0.664924 0.396735 0.584397 -0.134925 -0.800172 0.429618 0.944961 255 255 255
-0.834599 0.425541 0.556715 0.584397 -0.134925 -0.800172 0.504195 0.989471 255 255 255
-1.124235 0.295249 0.367152 0.584397 -0.134925 -0.800172 0.481363 0.956219 255 255 255
0.998379 0.664924 0.396735 -0.717560 0.652948 0.242418 0.364708 0.944801 255 255 255
0.834599 0.425541 0.556715 -0.717560 0.652948 0.242418 0.387256 0.813402 255 255 255
1.080662 0.649252 0.682504 -0.717560 0.652948 0.242418 0.362514 0.836043 255 255 255
-1.080662 0.649252 0.682504 0.717560 0.652948 0.242418 0.431811 0.836203 255 255 255
-0.834599 0.425541 0.556715 0.717560 0.652948 0.242418 0.407070 0.813562 255 255 255
-0.998379 0.664924 0.396735 0.717560 0.652948 0.242418 0.429618 0.944961 255 255 255
1.080662 0.649252 0.682504 -0.378953 -0.100457 0.919947 0.362514 0.836043 255 255 255
0.834599 0.425541 0.556715 -0.378953 -0.100457 0.919947 0.387256 0.813402 255 255 255
1.295377 0.075024 0.708247 -0.378953 -0.100457 0.919947 0.282136 0.826247 255 255 255
-1.295378 0.075024 0.708247 0.378953 -0.100457 0.919947 0.512189 0.826407 255 255 255
-0.834599 0.425541 0.556715 0.378953 -0.100457 0.919947 0.407070 0.813562 255 255 255
-1.080662 0.649252 0.682504 0.378953 -0.100457 0.919947 0.431811 0.836203 255 255 255
0.786606 0.951142 1.089871 0.195807 0.256367 0.946539 0.481382 0.381128 255 255 255
0.744064 1.482226 0.954829 0.195807 0.256367 0.946539 0.483875 0.425552 255 255 255
-0.000000 1.813475 1.019033 0.195807 0.256367 0.946539 0.500785 0.497628 255 255 255
-0.000000 1.813475 1.019033 -0.195807 0.256367 0.946539 0.500784 0.497631 255 255 255
-0.744064 1.482226 0.954829 -0.195807 0.256367 0.946539 0.483875 0.569705 255 255 255
-0.786606 0.951142 1.089871 -0.195807 0.256367 0.946539 0.481382 0.614130 255 255 255
0.879292 1.496611 0.598821 0.905892 0.233201 0.353521 0.390111 0.412452 255 255 255
0.744064 1.482226 0.954829 0.905892 0.233201 0.353521 0.483875 0.425552 255 255 255
1.080774 0.279878 0.885147 0.905892 0.233201 0.353521 0.431090 0.319079 255 255 255
-1.080774 0.279878 0.885147 -0.905892 0.233201 0.353521 0.431089 0.676179 255 255 255
-0.744064 1.482226 0.954829 -0.905892 0.233201 0.353521 0.483875 0.569705 255 255 255
-0.879292 1.496611 0.598821 -0.905892 0.233201 0.353521 0.390111 0.582804 255 255 255
1.080774 0.279878 0.885147 0.970596 0.194196 0.142239 0.431090 0.319079 255 255 255
1.107608 0.357971 0.595422 0.970596 0.194196 0.142239 0.363853 0.313262 255 255 255
0.879292 1.496611 0.598821 0.970596 0.194196 0.142239 0.390111 0.412452 255 255 255
-0.879292 1.496611 0.598821 -0.970596 0.194196 0.142239 0.390111 0.582804 255 255 255
-1.107608 0.357971 0.595422 -0.970596 0.194196 0.142239 0.363853 0.681996 255 255 255
-1.080774 0.279878 0.885147 -0.970596 0.194196 0.142239 0.431089 0.676179 255 255 255
0.620501 0.027304 1.164468 0.263123 -0.353081 0.897831 0.484030 0.302276 255 255 255
-0.000000 -0.347045 1.199098 0.263123 -0.353081 0.897831 0.507984 0.264845 255 255 255
-0.000000 -0.979556 0.950357 0.263123 -0.353081 0.897831 0.447405 0.208189 255 255 255
-0.000000 -0.979556 0.950357 -0.263123 -0.353081 0.897831 0.447405 0.787069 255 255 255
-0.000000 -0.347045 1.199098 -0.263123 -0.353081 0.897831 0.507983 0.730413 255 255 255
-0.620501 0.027304 1.164468 -0.263123 -0.353081 0.897831 0.484029 0.692982 255 255 255
-0.000000 -1.048677 0.681828 0.574893 -0.573281 -0.583821 0.354162 0.195517 255 255 255
-0.000000 -0.762107 0.400432 0.574893 -0.573281 -0.583821 0.287720 0.210741 255 255 255
0.761973 0.158865 0.246408 0.574893 -0.573281 -0.583821 0.262241 0.324283 255 255 255
-0.761973 0.158865 0.246408 -0.574893 -0.573281 -0.583821 0.262240 0.670975 255 255 255
-0.000000 -0.762107 0.400432 -0.574893 -0.573281 -0.583821 0.287719 0.784517 255 255 255
-0.000000 -1.048677 0.681828 -0.574893 -0.573281 -0.583821 0.354161 0.799741 255 255 255
0.847536 1.661404 0.484583 0.980430 0.196560 0.011006 0.360023 0.415528 255 255 255
0.879292 1.496611 0.598821 0.980430 0.196560 0.011006 0.390111 0.412452 255 255 255
1.107608 0.357971 0.595422 0.980430 0.196560 0.011006 0.363853 0.313262 255 255 255
-1.107608 0.357971 0.595422 -0.980430 0.196560 0.011006 0.363853 0.681996 255 255 255
-0.879292 1.496611 0.598821 -0.980430 0.196560 0.011006 0.390111 0.582804 255 255 255
-0.847536 1.661404 0.484583 -0.980430 0.196560 0.011006 0.360023 0.579728 255 255 255
-0.000000 2.076873 0.677301 0.239296 0.640141 0.730039 0.410781 0.497628 255 255 255
0.744064 1.482226 0.954829 0.239296 0.640141 0.730039 0.483875 0.425552 255 255 255
0.713767 1.818682 0.669736 0.239296 0.640141 0.730039 0.408788 0.428486 255 255 255
-0.713768 1.818682 0.669736 -0.239296 0.640141 0.730039 0.408788 0.566770 255 255 255
-0.744064 1.482226 0.954829 -0.239296 0.640141 0.730039 0.483875 0.569705 255 255 255
-0.000000 2.076873 0.677301 -0.239296 0.640141 0.730039 0.410781 0.497628 255 255 255
-0.000000 2.076873 0.677301 0.280193 0.790547 -0.544544 0.410781 0.497628 255 255 255
0.713767 1.818682 0.669736 0.280193 0.790547 -0.544544 0.408788 0.428486 255 255 255
-0.000000 2.022522 0.598396 0.280193 0.790547 -0.544544 0.389999 0.497628 255 255 255
-0.000000 2.022522 0.598396 -0.280193 0.790547 -0.544544 0.389999 0.497628 255 255 255
-0.713768 1.818682 0.669736 -0.280193 0.790547 -0.544544 0.408788 0.566770 255 255 255
-0.000000 2.076873 0.677301 -0.280193 0.790547 -0.544544 0.410781 0.497628 255 255 255
0.879292 1.496611 0.598821 0.178916 0.298379 -0.937528 0.390111 0.412452 255 255 255
-0.000000 2.022522 0.598396 0.178916 0.298379 -0.937528 0.389999 0.497628 255 255 255
0.713767 1.818682 0.669736 0.178916 0.298379 -0.937528 0.408788 0.428486 255 255 255
-0.713768 1.818682 0.669736 -0.178916 0.298379 -0.937528 0.408788 0.566770 255 255 255
-0.000000 2.022522 0.598396 -0.178916 0.298379 -0.937528 0.389999 0.497628 255 255 255
-0.879292 1.496611 0.598821 -0.178916 0.298379 -0.937528 0.390111 0.582804 255 255 255
0.879292 1.496611 0.598821 0.864004 0.368504 0.343078 0.390111 0.412452 255 255 255
0.713767 1.818682 0.669736 0.864004 0.368504 0.343078 0.408788 0.428486 255 255 255
0.744064 1.482226 0.954829 0.864004 0.368504 0.343078 0.483875 0.425552 255 255 255
-0.744064 1.482226 0.954829 -0.864004 0.368504 0.343078 0.483875 0.569705 255 255 255
-0.713768 1.818682 0.669736 -0.864004 0.368504 0.343078 0.408788 0.566770 255 255 255
-0.879292 1.496611 0.598821 -0.864004 0.368504 0.343078 0.390111 0.582804 255 255 255
-0.000000 0.906432 0.035789 0.644682 0.492348 -0.584789 0.762819 0.024047 255 255 255
0.761973 0.158865 0.246408 0.644682 0.492348 -0.584789 0.726999 0.009586 255 255 255
-0.000000 0.620856 -0.204644 0.644682 0.492348 -0.584789 0.762834 0.055986 255 255 255
-0.000000 0.620856 -0.204644 -0.644682 0.492348 -0.584789 0.762841 0.055986 255 255 255
-0.761973 0.158865 0.246408 -0.644682 0.492348 -0.584789 0.798677 0.009586 255 255 255
-0.000000 0.906432 0.035789 -0.644682 0.492348 -0.584789 0.762856 0.024047 255 255 255
0.761973 0.158865 0.246408 0.629539 0.690462 -0.356289 0.726999 0.009586 255 255 255
0.788888 -0.028239 -0.068629 0.629539 0.690462 -0.356289 0.726661 0.039028 255 255 255
-0.000000 0.620856 -0.204644 0.629539 0.690462 -0.356289 0.762834 0.055986 255 255 255
-0.000000 0.620856 -0.204644 -0.629539 0.690462 -0.356289 0.762841 0.055986 255 255 255
-0.788888 -0.028239 -0.068629 -0.629539 0.690462 -0.356289 0.799014 0.039029 255 255 255
-0.761973 0.158865 0.246408 -0.629539 0.690462 -0.356289 0.798677 0.009586 255 255 255
0.761973 0.158865 0.246408 0.740777 -0.547884 0.388680 0.603697 0.006679 255 255 255
-0.000000 -0.762107 0.400432 0.740777 -0.547884 0.388680 0.534358 0.000286 255 255 255
0.788888 -0.028239 -0.068629 0.740777 -0.547884 0.388680 0.610854 0.030034 255 255 255
-0.788888 -0.028239 -0.068629 -0.740777 -0.547884 0.388680 0.914821 0.030034 255 255 255
-0.000000 -0.762107 0.400432 -0.740777 -0.547884 0.388680 0.991317 0.000286 255 255 255
-0.761973 0.158865 0.246408 -0.740777 -0.547884 0.388680 0.921978 0.006679 255 255 255
-0.000000 -0.762107 0.400432 0.739329 -0.602151 0.301341 0.534358 0.000286 255 255 255
-0.000000 -0.950437 0.024105 0.739329 -0.602151 0.301341 0.534169 0.037372 255 255 255
0.788888 -0.028239 -0.068629 0.739329 -0.602151 0.301341 0.610854 0.030034 255 255 255
-0.788888 -0.028239 -0.068629 -0.739329 -0.602151 0.301341 0.914821 0.030034 255 255 255
-0.000000 -0.950437 0.024105 -0.739329 -0.602151 0.301341 0.991506 0.037372 255 255 255
-0.000000 -0.762107 0.400432 -0.739329 -0.602151 0.301341 0.991317 0.000286 255 255 255
-0.000000 2.022522 0.598396 0.345752 0.578674 0.738642 0.389999 0.497628 255 255 255
0.879292 1.496611 0.598821 0.345752 0.578674 0.738642 0.390111 0.412452 255 255 255
0.847536 1.661404 0.484583 0.345752 0.578674 0.738642 0.360023 0.415528 255 255 255
-0.847536 1.661404 0.484583 -0.345752 0.578674 0.738642 0.360023 0.579728 255 255 255
-0.879292 1.496611 0.598821 -0.345752 0.578674 0.738642 0.390111 0.582804 255 255 255
-0.000000 2.022522 0.598396 -0.345752 0.578674 0.738642 0.389999 0.497628 255 255 255
-0.000000 2.022522 0.598396 0.405110 0.829849 0.383714 0.389999 0.497628 255 255 255
0.847536 1.661404 0.484583 0.405110 0.829849 0.383714 0.360023 0.415528 255 255 255
0.306266 1.958003 0.414587 0.405110 0.829849 0.383714 0.341588 0.467961 255 255 255
-0.306266 1.958003 0.414587 -0.405110 0.829849 0.383714 0.341588 0.527296 255 255 255
-0.847536 1.661404 0.484583 -0.405110 0.829849 0.383714 0.360023 0.579728 255 255 255
-0.000000 2.022522 0.598396 -0.405110 0.829849 0.383714 0.389999 0.497628 255 255 255
-0.000000 1.813475 1.019033 0.375606 0.734040 0.565779 0.500785 0.497628 255 255 255
0.744064 1.482226 0.954829 0.375606 0.734040 0.565779 0.483875 0.425552 255 255 255
-0.000000 2.076873 0.677301 0.375606 0.734040 0.565779 0.410781 0.497628 255 255 255
-0.000000 2.076873 0.677301 -0.375606 0.734040 0.565779 0.410781 0.497628 255 255 255
-0.744064 1.482226 0.954829 -0.375606 0.734040 0.565779 0.483875 0.569705 255 255 255
-0.000000 1.813475 1.019033 -0.375606 0.734040 0.565779 0.500785 0.497628 255 255 255
0.786606 0.951142 1.089871 0.529279 -0.026688 0.848028 0.481382 0.381128 255 255 255
0.620501 0.027304 1.164468 0.529279 -0.026688 0.848028 0.484030 0.302276 255 255 255
1.080774 0.279878 0.885147 0.529279 -0.026688 0.848028 0.431090 0.319079 255 255 255
-1.080774 0.279878 0.885147 -0.529279 -0.026688 0.848028 0.431089 0.676179 255 255 255
-0.620501 0.027304 1.164468 -0.529279 -0.026688 0.848028 0.484029 0.692982 255 255 255
-0.786606 0.951142 1.089871 -0.529279 -0.026688 0.848028 0.481382 0.614130 255 255 255
0.786606 0.951142 1.089871 0.825046 0.200430 0.528325 0.481382 0.381128 255 255 255
1.080774 0.279878 0.885147 0.825046 0.200430 0.528325 0.431090 0.319079 255 255 255
0.744064 1.482226 0.954829 0.825046 0.200430 0.528325 0.483875 0.425552 255 255 255
-0.744064 1.482226 0.954829 -0.825046 0.200430 0.528325 0.483875 0.569705 255 255 255
-1.080774 0.279878 0.885147 -0.825046 0.200430 0.528325 0.431089 0.676179 255 255 255
-0.786606 0.951142 1.089871 -0.825046 0.200430 0.528325 0.481382 0.614130 255 255 255
0.306266 1.958003 0.414587 0.207377 0.823128 -0.528635 0.341588 0.467961 255 255 255
0.285351 1.678752 -0.028435 0.207377 0.823128 -0.528635 0.224907 0.469987 255 255 255
-0.000000 1.745829 -0.035930 0.207377 0.823128 -0.528635 0.222933 0.497628 255 255 255
-0.000000 1.745829 -0.035930 -0.207377 0.823128 -0.528635 0.222933 0.497628 255 255 255
-0.285352 1.678752 -0.028435 -0.207377 0.823128 -0.528635 0.224907 0.525270 255 255 255
-0.306266 1.958003 0.414587 -0.207377 0.823128 -0.528635 0.341588 0.527296 255 255 255
0.306266 1.958003 0.414587 -0.005560 0.906128 -0.422967 0.341588 0.467961 255 255 255
-0.000000 1.745829 -0.035930 -0.005560 0.906128 -0.422967 0.222933 0.497628 255 255 255
-0.000000 1.927100 0.352409 -0.005560 0.906128 -0.422967 0.325212 0.497628 255 255 255
-0.000000 1.927100 0.352409 0.005560 0.906128 -0.422967 0.325212 0.497628 255 255 255
-0.000000 1.745829 -0.035930 0.005560 0.906128 -0.422967 0.222933 0.497628 255 255 255
-0.306266 1.958003 0.414587 0.005560 0.906128 -0.422967 0.341588 0.527296 255 255 255
-0.000000 1.745829 -0.035930 0.006158 -0.085130 -0.996351 0.222934 0.497625 255 255 255
0.285351 1.678752 -0.028435 0.006158 -0.085130 -0.996351 0.224907 0.469987 255 255 255
-0.000000 0.906432 0.035789 0.006158 -0.085130 -0.996351 0.198425 0.468545 255 255 255
-0.000000 0.906432 0.035789 -0.006158 -0.085130 -0.996351 0.198424 0.526713 255 255 255
-0.285352 1.678752 -0.028435 -0.006158 -0.085130 -0.996351 0.224907 0.525270 255 255 255
-0.000000 1.745829 -0.035930 -0.006158 -0.085130 -0.996351 0.222933 0.497628 255 255 255
-0.000000 1.927100 0.352409 0.181792 0.152804 -0.971392 0.325212 0.497628 255 255 255
-0.000000 2.320544 0.414300 0.181792 0.152804 -0.971392 0.341513 0.497628 255 255 255
0.306266 1.958003 0.414587 0.181792 0.152804 -0.971392 0.341588 0.467961 255 255 255
-0.306266 1.958003 0.414587 -0.181792 0.152804 -0.971392 0.341588 0.527296 255 255 255
-0.000000 2.320544 0.414300 -0.181792 0.152804 -0.971392 0.341513 0.497628 255 255 255
-0.000000 1.927100 0.352409 -0.181792 0.152804 -0.971392 0.325212 0.497628 255 255 255
0.306266 1.958003 0.414587 0.527744 0.446397 0.722645 0.341588 0.467961 255 255 255
-0.000000 2.320544 0.414300 0.527744 0.446397 0.722645 0.341513 0.497628 255 255 255
-0.000000 2.022522 0.598396 0.527744 0.446397 0.722645 0.389999 0.497628 255 255 255
-0.000000 2.022522 0.598396 -0.527744 0.446397 0.722645 0.389999 0.497628 255 255 255
-0.000000 2.320544 0.414300 -0.527744 0.446397 0.722645 0.341513 0.497628 255 255 255
-0.306266 1.958003 0.414587 -0.527744 0.446397 0.722645 0.341588 0.527296 255 255 255
-0.000000 0.883698 1.208919 0.060512 -0.007965 0.998136 0.522313 0.345244 255 255 255
-0.000000 -0.347045 1.199098 0.060512 -0.007965 0.998136 0.507984 0.264845 255 255 255
0.620501 0.027304 1.164468 0.060512 -0.007965 0.998136 0.484030 0.302276 255 255 255
-0.620501 0.027304 1.164468 -0.060512 -0.007965 0.998136 0.484029 0.692982 255 255 255
-0.000000 -0.347045 1.199098 -0.060512 -0.007965 0.998136 0.507983 0.730413 255 255 255
-0.000000 0.883698 1.208919 -0.060512 -0.007965 0.998136 0.522312 0.650015 255 255 255
-0.000000 0.883698 1.208919 0.144920 0.053720 0.987984 0.522313 0.345244 255 255 255
0.620501 0.027304 1.164468 0.144920 0.053720 0.987984 0.484030 0.302276 255 255 255
0.786606 0.951142 1.089871 0.144920 0.053720 0.987984 0.481382 0.381128 255 255 255
-0.786606 0.951142 1.089871 -0.144920 0.053720 0.987984 0.481382 0.614130 255 255 255
-0.620501 0.027304 1.164468 -0.144920 0.053720 0.987984 0.484029 0.692982 255 255 255
-0.000000 0.883698 1.208919 -0.144920 0.053720 0.987984 0.522312 0.650015 255 255 255
-0.000000 0.883698 1.208919 0.130014 0.198399 0.971460 0.522313 0.345244 255 255 255
0.786606 0.951142 1.089871 0.130014 0.198399 0.971460 0.481382 0.381128 255 255 255
-0.000000 1.813475 1.019033 0.130014 0.198399 0.971460 0.500785 0.497628 255 255 255
-0.000000 1.813475 1.019033 -0.130014 0.198399 0.971460 0.500784 0.497631 255 255 255
-0.786606 0.951142 1.089871 -0.130014 0.198399 0.971460 0.481382 0.614130 255 255 255
-0.000000 0.883698 1.208919 -0.130014 0.198399 0.971460 0.522312 0.650015 255 255 255
3 0 1 2
3 3 4 5
3 6 7 8
3 9 10 11
3 12 13 14
3 15 16 17
3 18 19 20
3 21 22 23
3 24 25 26
3 27 28 29
3 30 31 32
3 33 34 35
3 36 37 38
3 39 40 41
3 42 43 44
3 45 46 47
3 48 49 50
3 51 52 53
3 54 55 56
3 57 58 59
3 60 61 62
3 63 64 65
3 66 67 68
3 69 70 71
3 72 73 74
3 75 76 77
3 78 79 80
3 81 82 83
3 84 85 86
3 87 88 89
3 90 91 92
3 93 94 95
3 96 97 98
3 99 100 101
3 102 103 104
3 105 106 107
3 108 109 110
3 111 112 113
3 114 115 116
3 117 118 119
3 120 121 122
3 123 124 125
3 126 127 128
3 129 130 131
3 132 133 134
3 135 136 137
3 138 139 140
3 141 142 143
3 144 145 146
3 147 148 149
3 150 151 152
3 153 154 155
3 156 157 158
3 159 160 161
3 162 163 164
3 165 166 167
3 168 169 170
3 171 172 173
3 174 175 176
3 177 178 179
3 180 181 182
3 183 184 185
3 186 187 188
3 189 190 191
3 192 193 194
3 195 196 197
3 198 199 200
3 201 202 203
3 204 205 206
3 207 208 209
3 210 211 212
3 213 214 215
3 216 217 218
3 219 220 221
3 222 223 224
3 225 226 227
3 228 229 230
3 231 232 233
3 234 235 236
3 237 238 239
3 240 241 242
3 243 244 245
3 246 247 248
3 249 250 251
3 252 253 254
3 255 256 257
3 258 259 260
3 261 262 263
3 264 265 266
3 267 268 269
3 270 271 272
3 273 274 275
3 276 277 278
3 279 280 281
