ply
format ascii 1.0
comment Created by Blender 2.62 (sub 0) - www.blender.org, source file: 'male.blend'
element vertex 66
property float x
property float y
property float z
property float nx
property float ny
property float nz
property float s
property float t
property uchar red
property uchar green
property uchar blue
element face 22
property list uchar uint vertex_indices
end_header
-0.190183 0.745931 -0.371657 -0.871820 0.326833 0.364843 0.180870 0.064025 255 255 255
-0.577208 -0.325663 -0.336529 -0.871820 0.326833 0.364843 0.125015 0.064025 255 255 255
-0.304375 -0.176217 0.181550 -0.871820 0.326833 0.364843 0.131225 0.128049 255 255 255
-0.304375 -0.176217 0.181550 -0.709560 0.425032 0.562026 0.131225 0.128049 255 255 255
-0.009079 0.405189 0.114674 -0.709560 0.425032 0.562026 0.168343 0.126027 255 255 255
-0.190183 0.745931 -0.371657 -0.709560 0.425032 0.562026 0.180870 0.064025 255 255 255
0.455445 0.379369 -0.027789 0.574437 -0.139181 -0.806629 0.059602 0.109205 255 255 255
0.215837 -0.641242 -0.022322 0.574437 -0.139181 -0.806629 0.112269 0.111774 255 255 255
-0.259642 -0.546073 -0.377353 0.574437 -0.139181 -0.806629 0.111331 0.064025 255 255 255
-0.259642 -0.546073 -0.377353 0.679955 -0.267522 -0.682710 0.111331 0.064025 255 255 255
0.158457 0.543776 -0.388002 0.679955 -0.267522 -0.682710 0.059602 0.064025 255 255 255
0.455445 0.379369 -0.027789 0.679955 -0.267522 -0.682710 0.059602 0.109205 255 255 255
0.278250 -0.519727 0.144284 0.954908 -0.225220 -0.193462 0.115328 0.133562 255 255 255
0.215837 -0.641242 -0.022322 0.954908 -0.225220 -0.193462 0.112269 0.111774 255 255 255
0.455445 0.379369 -0.027789 0.954908 -0.225220 -0.193462 0.059602 0.109205 255 255 255
0.455445 0.379369 -0.027789 0.925654 -0.113339 0.360997 0.059602 0.109205 255 255 255
0.389246 0.252193 0.102026 0.925654 -0.113339 0.360997 0.059602 0.123662 255 255 255
0.278250 -0.519727 0.144284 0.925654 -0.113339 0.360997 0.115328 0.133562 255 255 255
-0.190183 0.745931 -0.371657 -0.672499 0.249109 -0.696914 0.180870 0.064025 255 255 255
0.270275 0.563628 -0.881147 -0.672499 0.249109 -0.696914 0.177942 0.004033 255 255 255
-0.233225 -0.460696 -0.761427 -0.672499 0.249109 -0.696914 0.119798 0.004033 255 255 255
-0.577208 -0.325663 -0.336529 -0.716746 0.237372 -0.655691 0.125015 0.064025 255 255 255
-0.190183 0.745931 -0.371657 -0.716746 0.237372 -0.655691 0.180870 0.064025 255 255 255
-0.233225 -0.460696 -0.761427 -0.716746 0.237372 -0.655691 0.119798 0.004033 255 255 255
-0.190183 0.745931 -0.371657 -0.037689 0.810163 0.584992 0.180870 0.064025 255 255 255
0.687757 0.825300 -0.425014 -0.037689 0.810163 0.584992 0.212730 0.063152 255 255 255
0.486394 0.865490 -0.493646 -0.037689 0.810163 0.584992 0.205504 0.053649 255 255 255
-0.009079 0.405189 0.114674 -0.037959 0.811699 0.582842 0.168343 0.126027 255 255 255
0.687757 0.825300 -0.425014 -0.037959 0.811699 0.582842 0.212730 0.063152 255 255 255
-0.190183 0.745931 -0.371657 -0.037959 0.811699 0.582842 0.180870 0.064025 255 255 255
-0.233225 -0.460696 -0.761427 0.933492 -0.358267 -0.015433 0.119798 0.004033 255 255 255
0.158457 0.543776 -0.388002 0.933492 -0.358267 -0.015433 0.059602 0.064025 255 255 255
-0.259642 -0.546073 -0.377353 0.933492 -0.358267 -0.015433 0.111331 0.064025 255 255 255
-0.233225 -0.460696 -0.761427 0.890323 -0.415995 0.185128 0.119798 0.004033 255 255 255
0.270275 0.563628 -0.881147 0.890323 -0.415995 0.185128 0.059602 0.004033 255 255 255
0.158457 0.543776 -0.388002 0.890323 -0.415995 0.185128 0.059602 0.064025 255 255 255
0.486394 0.865490 -0.493646 0.195607 -0.480182 -0.855081 0.205504 0.053649 255 255 255
0.687757 0.825300 -0.425014 0.195607 -0.480182 -0.855081 0.212730 0.063152 255 255 255
0.158457 0.543776 -0.388002 0.195607 -0.480182 -0.855081 0.233719 0.053812 255 255 255
0.158457 0.543776 -0.388002 0.339437 -0.718062 -0.607593 0.233719 0.053812 255 255 255
0.687757 0.825300 -0.425014 0.339437 -0.718062 -0.607593 0.212730 0.063152 255 255 255
0.455445 0.379369 -0.027789 0.339437 -0.718062 -0.607593 0.200557 0.102598 255 255 255
-0.304375 -0.176217 0.181550 -0.488237 -0.745262 0.454103 0.131225 0.128049 255 255 255
-0.259642 -0.546073 -0.377353 -0.488237 -0.745262 0.454103 0.111331 0.064025 255 255 255
0.215837 -0.641242 -0.022322 -0.488237 -0.745262 0.454103 0.112269 0.111774 255 255 255
-0.304375 -0.176217 0.181550 -0.464639 -0.755113 0.462510 0.131225 0.128049 255 255 255
-0.577208 -0.325663 -0.336529 -0.464639 -0.755113 0.462510 0.125015 0.064025 255 255 255
-0.259642 -0.546073 -0.377353 -0.464639 -0.755113 0.462510 0.111331 0.064025 255 255 255
-0.304375 -0.176217 0.181550 -0.362265 -0.683218 0.634017 0.131225 0.128049 255 255 255
0.215837 -0.641242 -0.022322 -0.362265 -0.683218 0.634017 0.112269 0.111774 255 255 255
0.278250 -0.519727 0.144284 -0.362265 -0.683218 0.634017 0.115328 0.133562 255 255 255
0.455445 0.379369 -0.027789 0.261444 0.619472 0.740204 0.200557 0.102598 255 255 255
-0.009079 0.405189 0.114674 0.261444 0.619472 0.740204 0.168343 0.126027 255 255 255
0.389246 0.252193 0.102026 0.261444 0.619472 0.740204 0.198764 0.121451 255 255 255
0.455445 0.379369 -0.027789 0.271600 0.557386 0.784573 0.200557 0.102598 255 255 255
0.687757 0.825300 -0.425014 0.271600 0.557386 0.784573 0.212730 0.063152 255 255 255
-0.009079 0.405189 0.114674 0.271600 0.557386 0.784573 0.168343 0.126027 255 255 255
-0.577208 -0.325663 -0.336529 -0.575352 -0.789143 -0.214994 0.125015 0.064025 255 255 255
-0.233225 -0.460696 -0.761427 -0.575352 -0.789143 -0.214994 0.119798 0.004033 255 255 255
-0.259642 -0.546073 -0.377353 -0.575352 -0.789143 -0.214994 0.111331 0.064025 255 255 255
-0.190183 0.745931 -0.371657 0.501273 0.852541 0.147981 0.180870 0.064025 255 255 255
0.158457 0.543776 -0.388002 0.501273 0.852541 0.147981 0.191804 0.004038 255 255 255
0.270275 0.563628 -0.881147 0.501273 0.852541 0.147981 0.177942 0.004033 255 255 255
-0.190183 0.745931 -0.371657 -0.145314 -0.171832 -0.974350 0.180870 0.064025 255 255 255
0.486394 0.865490 -0.493646 -0.145314 -0.171832 -0.974350 0.205504 0.053649 255 255 255
0.158457 0.543776 -0.388002 -0.145314 -0.171832 -0.974350 0.191804 0.004038 255 255 255
3 0 1 2
3 3 4 5
3 6 7 8
3 9 10 11
3 12 13 14
3 15 16 17
3 18 19 20
3 21 22 23
3 24 25 26
3 27 28 29
3 30 31 32
3 33 34 35
3 36 37 38
3 39 40 41
3 42 43 44
3 45 46 47
3 48 49 50
3 51 52 53
3 54 55 56
3 57 58 59
3 60 61 62
3 63 64 65
