ply
format ascii 1.0
comment Created by Blender 2.62 (sub 0) - www.blender.org, source file: 'male.blend'
element vertex 72
property float x
property float y
property float z
property float nx
property float ny
property float nz
property float s
property float t
property uchar red
property uchar green
property uchar blue
element face 24
property list uchar uint vertex_indices
end_header
-0.720873 1.326519 -0.596118 0.000000 0.291559 -0.956553 0.000000 1.000000 255 255 255
0.720873 1.326519 -0.596118 0.000000 0.291559 -0.956553 1.000000 1.000000 255 255 255
0.000000 0.154660 -0.953303 0.000000 0.291559 -0.956553 1.000000 0.000000 255 255 255
-0.720873 1.326519 -0.596118 0.000000 0.694369 -0.719619 0.000000 1.000000 255 255 255
0.000000 1.581251 -0.350325 0.000000 0.694369 -0.719619 1.000000 0.000000 255 255 255
0.720873 1.326519 -0.596118 0.000000 0.694369 -0.719619 1.000000 1.000000 255 255 255
1.059626 1.265134 0.258167 0.315312 0.947277 -0.056965 0.714247 0.327734 255 255 255
0.720873 1.326519 -0.596118 0.315312 0.947277 -0.056965 0.729780 0.442362 255 255 255
0.000000 1.581251 -0.350325 0.315312 0.947277 -0.056965 0.762834 0.412896 255 255 255
0.000000 1.581251 -0.350325 -0.315312 0.947277 -0.056965 0.762841 0.412896 255 255 255
-0.720873 1.326519 -0.596118 -0.315312 0.947277 -0.056965 0.795895 0.442362 255 255 255
-1.059626 1.265134 0.258167 -0.315312 0.947277 -0.056965 0.811429 0.327734 255 255 255
0.000000 1.581251 -0.350325 0.394877 0.890790 -0.224865 0.762834 0.412896 255 255 255
0.000000 1.735690 0.261477 0.394877 0.890790 -0.224865 0.762834 0.327321 255 255 255
1.059626 1.265134 0.258167 0.394877 0.890790 -0.224865 0.714247 0.327734 255 255 255
-1.059626 1.265134 0.258167 -0.394877 0.890790 -0.224865 0.811429 0.327734 255 255 255
0.000000 1.735690 0.261477 -0.394877 0.890790 -0.224865 0.762841 0.327322 255 255 255
0.000000 1.581251 -0.350325 -0.394877 0.890790 -0.224865 0.762841 0.412896 255 255 255
1.059626 1.265134 0.258167 0.620084 0.650499 0.438574 0.714247 0.327734 255 255 255
1.926174 0.436871 0.261477 0.620084 0.650499 0.438574 0.649829 0.325369 255 255 255
2.456226 0.436871 -0.487945 0.620084 0.650499 0.438574 0.650208 0.410251 255 255 255
-2.456226 0.436871 -0.487945 -0.620084 0.650499 0.438574 0.875468 0.410252 255 255 255
-1.926174 0.436871 0.261477 -0.620084 0.650499 0.438574 0.875847 0.325369 255 255 255
-1.059626 1.265134 0.258167 -0.620084 0.650499 0.438574 0.811429 0.327734 255 255 255
2.456226 0.436871 -0.487945 0.620326 0.648325 0.441441 0.650208 0.410251 255 255 255
1.588550 1.367432 -0.635332 0.620326 0.648325 0.441441 0.689994 0.437090 255 255 255
1.059626 1.265134 0.258167 0.620326 0.648325 0.441441 0.714247 0.327734 255 255 255
-1.059626 1.265134 0.258167 -0.620326 0.648325 0.441441 0.811429 0.327734 255 255 255
-1.588550 1.367432 -0.635332 -0.620326 0.648325 0.441441 0.835681 0.437090 255 255 255
-2.456226 0.436871 -0.487945 -0.620326 0.648325 0.441441 0.875468 0.410252 255 255 255
0.748697 -1.875630 -0.502685 0.385774 -0.595537 0.704638 0.567031 0.403581 255 255 255
1.915669 -0.877115 -0.297663 0.385774 -0.595537 0.704638 0.617979 0.379245 255 255 255
0.943704 -0.829678 0.274558 0.385774 -0.595537 0.704638 0.575544 0.321319 255 255 255
-0.943704 -0.829678 0.274558 -0.385774 -0.595537 0.704638 0.950131 0.321319 255 255 255
-1.915669 -0.877115 -0.297663 -0.385774 -0.595537 0.704638 0.907697 0.379245 255 255 255
-0.748697 -1.875630 -0.502685 -0.385774 -0.595537 0.704638 0.958645 0.403581 255 255 255
0.943704 -0.829678 0.274558 -0.094662 -0.582339 0.807416 0.575544 0.321319 255 255 255
0.000000 -1.264095 -0.149400 -0.094662 -0.582339 0.807416 0.534344 0.361645 255 255 255
0.748697 -1.875630 -0.502685 -0.094662 -0.582339 0.807416 0.567031 0.403581 255 255 255
-0.748697 -1.875630 -0.502685 0.094662 -0.582339 0.807416 0.958645 0.403581 255 255 255
0.000000 -1.264095 -0.149400 0.094662 -0.582339 0.807416 0.991331 0.361645 255 255 255
-0.943704 -0.829678 0.274558 0.094662 -0.582339 0.807416 0.950131 0.321319 255 255 255
0.000000 -1.264095 -0.149400 -0.636337 -0.771294 -0.013444 0.534344 0.361645 255 255 255
0.000000 -1.251606 -0.865908 -0.636337 -0.771294 -0.013444 0.534344 0.446696 255 255 255
0.748697 -1.875630 -0.502685 -0.636337 -0.771294 -0.013444 0.567031 0.403581 255 255 255
0.000000 -1.251606 -0.865908 0.636337 -0.771294 -0.013444 0.991331 0.446696 255 255 255
0.000000 -1.264095 -0.149400 0.636337 -0.771294 -0.013444 0.991331 0.361645 255 255 255
-0.748697 -1.875630 -0.502685 0.636337 -0.771294 -0.013444 0.958645 0.403581 255 255 255
-0.000000 -0.775030 0.398172 0.044024 -0.745105 0.665493 0.534344 0.320431 255 255 255
0.000000 -1.264095 -0.149400 0.044024 -0.745105 0.665493 0.534344 0.361645 255 255 255
0.943704 -0.829678 0.274558 0.044024 -0.745105 0.665493 0.575544 0.321319 255 255 255
0.000000 -1.264095 -0.149400 -0.044024 -0.745105 0.665493 0.991331 0.361645 255 255 255
-0.000000 -0.775030 0.398172 -0.044024 -0.745105 0.665493 0.991331 0.320431 255 255 255
-0.943704 -0.829678 0.274558 -0.044024 -0.745105 0.665493 0.950131 0.321319 255 255 255
1.059626 1.265134 0.258167 -0.042923 0.995149 0.088526 0.714247 0.327734 255 255 255
1.588550 1.367432 -0.635332 -0.042923 0.995149 0.088526 0.689994 0.437090 255 255 255
0.720873 1.326519 -0.596118 -0.042923 0.995149 0.088526 0.729780 0.442362 255 255 255
-0.720873 1.326519 -0.596118 0.042923 0.995149 0.088526 0.795895 0.442362 255 255 255
-1.588550 1.367432 -0.635332 0.042923 0.995149 0.088526 0.835681 0.437090 255 255 255
-1.059626 1.265134 0.258167 0.042923 0.995149 0.088526 0.811429 0.327734 255 255 255
1.926174 0.436871 0.261477 0.462434 -0.350300 0.814521 0.649829 0.325369 255 255 255
0.943704 -0.829678 0.274558 0.462434 -0.350300 0.814521 0.575544 0.321319 255 255 255
1.915669 -0.877115 -0.297663 0.462434 -0.350300 0.814521 0.617979 0.379245 255 255 255
-1.915669 -0.877115 -0.297663 -0.462434 -0.350300 0.814521 0.907697 0.379245 255 255 255
-0.943704 -0.829678 0.274558 -0.462434 -0.350300 0.814521 0.950131 0.321319 255 255 255
-1.926174 0.436871 0.261477 -0.462434 -0.350300 0.814521 0.875847 0.325369 255 255 255
2.456226 0.436871 -0.487945 0.791633 -0.244586 0.559907 0.650208 0.410251 255 255 255
1.926174 0.436871 0.261477 0.791633 -0.244586 0.559907 0.649829 0.325369 255 255 255
1.915669 -0.877115 -0.297663 0.791633 -0.244586 0.559907 0.617979 0.379245 255 255 255
-1.915669 -0.877115 -0.297663 -0.791633 -0.244586 0.559907 0.907697 0.379245 255 255 255
-1.926174 0.436871 0.261477 -0.791633 -0.244586 0.559907 0.875847 0.325369 255 255 255
-2.456226 0.436871 -0.487945 -0.791633 -0.244586 0.559907 0.875468 0.410252 255 255 255
3 0 1 2
3 3 4 5
3 6 7 8
3 9 10 11
3 12 13 14
3 15 16 17
3 18 19 20
3 21 22 23
3 24 25 26
3 27 28 29
3 30 31 32
3 33 34 35
3 36 37 38
3 39 40 41
3 42 43 44
3 45 46 47
3 48 49 50
3 51 52 53
3 54 55 56
3 57 58 59
3 60 61 62
3 63 64 65
3 66 67 68
3 69 70 71
