ply
format ascii 1.0
comment Created by Blender 2.62 (sub 0) - www.blender.org, source file: 'male.blend'
element vertex 69
property float x
property float y
property float z
property float nx
property float ny
property float nz
property float s
property float t
property uchar red
property uchar green
property uchar blue
element face 23
property list uchar uint vertex_indices
end_header
1.113121 -0.040030 -0.067925 0.809394 0.586093 0.037096 0.651086 0.539438 255 255 255
0.886640 0.371551 -1.629066 0.809394 0.586093 0.037096 0.686334 0.665636 255 255 255
0.075326 1.367432 0.338649 0.809394 0.586093 0.037096 0.689994 0.437090 255 255 255
0.943002 0.436871 0.486036 0.718776 0.620550 -0.313494 0.650208 0.410251 255 255 255
1.113121 -0.040030 -0.067925 0.718776 0.620550 -0.313494 0.651086 0.539438 255 255 255
0.075326 1.367432 0.338649 0.718776 0.620550 -0.313494 0.689994 0.437090 255 255 255
1.113121 -0.040030 -0.067925 0.791448 -0.576477 0.203184 0.651086 0.539438 255 255 255
0.542756 -0.733281 0.186878 0.791448 -0.576477 0.203184 0.617688 0.444423 255 255 255
0.607024 -1.163166 -1.283139 0.791448 -0.576477 0.203184 0.605601 0.636309 255 255 255
1.296060 -0.516932 -1.642458 0.730073 -0.625863 0.274388 0.651964 0.668625 255 255 255
1.113121 -0.040030 -0.067925 0.730073 -0.625863 0.274388 0.651086 0.539438 255 255 255
0.607024 -1.163166 -1.283139 0.730073 -0.625863 0.274388 0.605601 0.636309 255 255 255
1.113121 -0.040030 -0.067925 0.728217 -0.392685 0.561692 0.651086 0.539438 255 255 255
0.943002 0.436871 0.486036 0.728217 -0.392685 0.561692 0.650208 0.410251 255 255 255
0.542756 -0.733281 0.186878 0.728217 -0.392685 0.561692 0.617688 0.444423 255 255 255
1.113121 -0.040030 -0.067925 0.907883 0.418682 -0.021329 0.651086 0.539438 255 255 255
1.296060 -0.516932 -1.642458 0.907883 0.418682 -0.021329 0.651964 0.668625 255 255 255
0.886640 0.371551 -1.629066 0.907883 0.418682 -0.021329 0.686334 0.665636 255 255 255
-1.513224 0.154660 0.020678 -0.739980 -0.557369 -0.376524 0.536890 0.475183 255 255 255
0.040048 -0.781308 -1.646444 -0.739980 -0.557369 -0.376524 0.572828 0.671592 255 255 255
-0.410184 -1.286997 -0.013035 -0.739980 -0.557369 -0.376524 0.590893 0.461259 255 255 255
-0.792351 1.326519 0.377862 -0.814782 0.200630 -0.543947 0.729780 0.442362 255 255 255
0.312322 0.371551 -1.629066 -0.814782 0.200630 -0.543947 0.710360 0.663366 255 255 255
0.040048 -0.781308 -1.646444 -0.814782 0.200630 -0.543947 0.721919 0.664069 255 255 255
-0.792351 1.326519 0.377862 -0.468778 0.508516 -0.722259 0.729780 0.442362 255 255 255
0.040048 -0.781308 -1.646444 -0.468778 0.508516 -0.722259 0.721919 0.664069 255 255 255
-1.513224 0.154660 0.020678 -0.468778 0.508516 -0.722259 0.762834 0.468268 255 255 255
0.312322 0.371551 -1.629066 -0.062484 0.887440 -0.456668 0.710360 0.663366 255 255 255
-0.792351 1.326519 0.377862 -0.062484 0.887440 -0.456668 0.729780 0.442362 255 255 255
0.075326 1.367432 0.338649 -0.062484 0.887440 -0.456668 0.689994 0.437090 255 255 255
0.312322 0.371551 -1.629066 0.000000 0.892236 -0.451570 0.710360 0.663366 255 255 255
0.075326 1.367432 0.338649 0.000000 0.892236 -0.451570 0.689994 0.437090 255 255 255
0.886640 0.371551 -1.629066 0.000000 0.892236 -0.451570 0.686334 0.665636 255 255 255
0.607024 -1.163166 -1.283139 -0.348804 -0.863802 -0.363570 0.605601 0.636309 255 255 255
-0.410184 -1.286997 -0.013035 -0.348804 -0.863802 -0.363570 0.590893 0.461259 255 255 255
0.040048 -0.781308 -1.646444 -0.348804 -0.863802 -0.363570 0.572828 0.671592 255 255 255
-0.410184 -1.286997 -0.013035 0.440886 -0.856107 0.269631 0.590893 0.461259 255 255 255
0.607024 -1.163166 -1.283139 0.440886 -0.856107 0.269631 0.605601 0.636309 255 255 255
0.542756 -0.733281 0.186878 0.440886 -0.856107 0.269631 0.617688 0.444423 255 255 255
-1.513224 -1.251606 0.108073 -0.106670 -0.592673 -0.798348 0.534344 0.446696 255 255 255
-0.410184 -1.286997 -0.013035 -0.106670 -0.592673 -0.798348 0.590893 0.461259 255 255 255
-0.764527 -1.875630 0.471296 -0.106670 -0.592673 -0.798348 0.567031 0.403581 255 255 255
-0.410184 -1.286997 -0.013035 0.513185 -0.708052 -0.485081 0.590893 0.461259 255 255 255
0.542756 -0.733281 0.186878 0.513185 -0.708052 -0.485081 0.617688 0.444423 255 255 255
-0.764527 -1.875630 0.471296 0.513185 -0.708052 -0.485081 0.567031 0.403581 255 255 255
0.820473 -0.186168 -2.207591 0.805403 0.378018 -0.456539 0.694697 0.724597 255 255 255
0.886640 0.371551 -1.629066 0.805403 0.378018 -0.456539 0.686334 0.665636 255 255 255
1.296060 -0.516932 -1.642458 0.805403 0.378018 -0.456539 0.651964 0.668625 255 255 255
0.040048 -0.781308 -1.646444 -0.656008 0.166030 -0.736266 0.721919 0.664069 255 255 255
0.312322 0.371551 -1.629066 -0.656008 0.166030 -0.736266 0.710360 0.663366 255 255 255
0.820473 -0.186168 -2.207591 -0.656008 0.166030 -0.736266 0.694697 0.724597 255 255 255
0.716107 -1.222824 -1.554048 0.728218 -0.546498 0.413568 0.606461 0.664315 255 255 255
1.296060 -0.516932 -1.642458 0.728218 -0.546498 0.413568 0.651964 0.668625 255 255 255
0.607024 -1.163166 -1.283139 0.728218 -0.546498 0.413568 0.605601 0.636309 255 255 255
0.716107 -1.222824 -1.554048 -0.543219 -0.838902 -0.033992 0.606461 0.664315 255 255 255
0.607024 -1.163166 -1.283139 -0.543219 -0.838902 -0.033992 0.605601 0.636309 255 255 255
0.040048 -0.781308 -1.646444 -0.543219 -0.838902 -0.033992 0.572828 0.671592 255 255 255
0.312322 0.371551 -1.629066 0.000000 0.719934 -0.694042 0.710360 0.663366 255 255 255
0.886640 0.371551 -1.629066 0.000000 0.719934 -0.694042 0.686334 0.665636 255 255 255
0.820473 -0.186168 -2.207591 0.000000 0.719934 -0.694042 0.694697 0.724597 255 255 255
0.542756 -0.733281 0.186878 0.653279 -0.756309 -0.034980 0.617688 0.444423 255 255 255
0.402445 -0.877115 0.676318 0.653279 -0.756309 -0.034980 0.617979 0.379245 255 255 255
-0.764527 -1.875630 0.471296 0.653279 -0.756309 -0.034980 0.567031 0.403581 255 255 255
0.402445 -0.877115 0.676318 0.920880 -0.355748 0.159450 0.617979 0.379245 255 255 255
0.542756 -0.733281 0.186878 0.920880 -0.355748 0.159450 0.617688 0.444423 255 255 255
0.943002 0.436871 0.486036 0.920880 -0.355748 0.159450 0.650208 0.410251 255 255 255
-0.410184 -1.286997 -0.013035 -0.110885 -0.061645 -0.991920 0.590893 0.461259 255 255 255
-1.513224 -1.251606 0.108073 -0.110885 -0.061645 -0.991920 0.534344 0.446696 255 255 255
-1.513224 0.154660 0.020678 -0.110885 -0.061645 -0.991920 0.536890 0.475183 255 255 255
3 0 1 2
3 3 4 5
3 6 7 8
3 9 10 11
3 12 13 14
3 15 16 17
3 18 19 20
3 21 22 23
3 24 25 26
3 27 28 29
3 30 31 32
3 33 34 35
3 36 37 38
3 39 40 41
3 42 43 44
3 45 46 47
3 48 49 50
3 51 52 53
3 54 55 56
3 57 58 59
3 60 61 62
3 63 64 65
3 66 67 68
