<?xml version="1.0" encoding="UTF-8" standalone="no"?>
<!-- Created with Inkscape (http://www.inkscape.org/) -->

<svg
   xmlns:dc="http://purl.org/dc/elements/1.1/"
   xmlns:cc="http://creativecommons.org/ns#"
   xmlns:rdf="http://www.w3.org/1999/02/22-rdf-syntax-ns#"
   xmlns:svg="http://www.w3.org/2000/svg"
   xmlns="http://www.w3.org/2000/svg"
   xmlns:sodipodi="http://sodipodi.sourceforge.net/DTD/sodipodi-0.dtd"
   xmlns:inkscape="http://www.inkscape.org/namespaces/inkscape"
   width="1052.3622"
   height="744.09448"
   id="svg2"
   version="1.1"
   inkscape:version="0.48.3.1 r9886"
   sodipodi:docname="slayer.svg">
  <defs
     id="defs4" />
  <sodipodi:namedview
     id="base"
     pagecolor="#ffffff"
     bordercolor="#666666"
     borderopacity="1.0"
     inkscape:pageopacity="0.0"
     inkscape:pageshadow="2"
     inkscape:zoom="0.7"
     inkscape:cx="521.1918"
     inkscape:cy="412.22392"
     inkscape:document-units="px"
     inkscape:current-layer="layer1"
     showgrid="true"
     inkscape:window-width="1024"
     inkscape:window-height="744"
     inkscape:window-x="0"
     inkscape:window-y="24"
     inkscape:window-maximized="1">
    <inkscape:grid
       type="xygrid"
       id="grid2985"
       empspacing="5"
       visible="true"
       enabled="true"
       snapvisiblegridlinesonly="true" />
  </sodipodi:namedview>
  <metadata
     id="metadata7">
    <rdf:RDF>
      <cc:Work
         rdf:about="">
        <dc:format>image/svg+xml</dc:format>
        <dc:type
           rdf:resource="http://purl.org/dc/dcmitype/StillImage" />
      </cc:Work>
    </rdf:RDF>
  </metadata>
  <g
     inkscape:label="Layer 1"
     inkscape:groupmode="layer"
     id="layer1"
     transform="translate(0,-308.2677)">
    <path
       style="fill:none;stroke:#000000;stroke-width:2px;stroke-linecap:butt;stroke-linejoin:miter;stroke-opacity:1"
       d="m 160,832.21626 80,-80 -80,-80 160,-160 0,80"
       id="path2995"
       inkscape:connector-curvature="0" />
    <path
       style="fill:none;stroke:#000000;stroke-width:2px;stroke-linecap:butt;stroke-linejoin:miter;stroke-opacity:1"
       d="m 320,592.21626 -80,80"
       id="path2997"
       inkscape:connector-curvature="0" />
    <path
       style="fill:none;stroke:#000000;stroke-width:2px;stroke-linecap:butt;stroke-linejoin:miter;stroke-opacity:1"
       d="m 240,672.21626 80,80 -80,80 -80,0"
       id="path2999"
       inkscape:connector-curvature="0" />
    <path
       style="fill:none;stroke:#000000;stroke-width:2px;stroke-linecap:butt;stroke-linejoin:miter;stroke-opacity:1"
       d="m 240,832.21626 80,0 80,-80 80,80 80,0 -240,-240"
       id="path3003"
       inkscape:connector-curvature="0" />
    <path
       style="fill:none;stroke:#000000;stroke-width:2px;stroke-linecap:butt;stroke-linejoin:miter;stroke-opacity:1"
       d="m 320,752.21626 40,-40 -80,-80"
       id="path3005"
       inkscape:connector-curvature="0" />
    <path
       style="fill:none;stroke:#000000;stroke-width:2px;stroke-linecap:butt;stroke-linejoin:miter;stroke-opacity:1"
       d="m 560,832.21626 -80,80 80,0 80,-80 100,-100 20,-20 -80,0 -80,80 -80,-80"
       id="path3007"
       inkscape:connector-curvature="0" />
    <path
       style="fill:none;stroke:#000000;stroke-width:2px;stroke-linecap:butt;stroke-linejoin:miter;stroke-opacity:1"
       d="m 520,712.21626 -80,0"
       id="path3009"
       inkscape:connector-curvature="0" />
    <path
       style="fill:none;stroke:#000000;stroke-width:2px;stroke-linecap:butt;stroke-linejoin:miter;stroke-opacity:1"
       d="m 720,752.21626 80,80 80,0 -80,-80 80,-80 -160,-160"
       id="path3011"
       inkscape:connector-curvature="0" />
    <path
       style="fill:none;stroke:#000000;stroke-width:2px;stroke-linecap:butt;stroke-linejoin:miter;stroke-opacity:1"
       d="m 760,712.21626 40,-40 -80,-80 0,-80"
       id="path3015"
       inkscape:connector-curvature="0" />
    <path
       style="fill:none;stroke:#000000;stroke-width:2px;stroke-linecap:butt;stroke-linejoin:miter;stroke-opacity:1"
       d="m 320,672.21626 -40,40"
       id="path3047"
       inkscape:connector-curvature="0" />
    <path
       style="opacity:0.98999999;fill:#ac9393;stroke:#000000;stroke-width:5.71428585;stroke-miterlimit:4;stroke-opacity:1;stroke-dasharray:none"
       d="m 203.7842,791.65698 39.26632,-39.2858 -39.98474,-40.00388 -39.98474,-40.00388 77.49438,-77.49438 77.4944,-77.4944 0,37.13198 0,37.13196 -40.34766,40.3663 -40.34766,40.3663 39.98086,40 39.98086,40 -39.26632,39.2858 -39.26632,39.2858 -37.14284,0 -37.14286,0 39.26632,-39.2858 0,0 z"
       id="path3053"
       inkscape:connector-curvature="0" />
    <path
       style="opacity:0.98999999;fill:#ac9393;stroke:#000000;stroke-width:5.71428585;stroke-miterlimit:4;stroke-opacity:1;stroke-dasharray:none"
       d="m 762.35544,791.65698 -39.26632,-39.2858 39.98088,-40 39.98086,-40 -40.34766,-40.3663 -40.34766,-40.3663 0,-37.13196 0,-37.13198 77.49438,77.4944 77.4944,77.49438 -39.98474,40.00388 -39.98474,40.00388 39.26632,39.2858 39.26632,39.2858 -37.14286,0 -37.14286,0 -39.26632,-39.2858 0,0 z"
       id="path3055"
       inkscape:connector-curvature="0" />
    <path
       style="opacity:0.98999999;fill:#c8b7b7;stroke:#000000;stroke-width:5.71428585;stroke-miterlimit:4;stroke-opacity:1;stroke-dasharray:none"
       d="m 303.78254,771.65862 59.27126,-59.28416 -39.98384,-40.00296 -39.98384,-40.00298 18.56828,-18.56826 18.56826,-18.56828 117.8489,117.8554 117.8489,117.8554 -37.13052,0 -37.13054,0 -40.7326,-40.71444 -40.7326,-40.71444 -40.69564,40.71444 -40.69566,40.71444 -37.1458,0 -37.1458,0 59.27124,-59.28416 z"
       id="path3061"
       inkscape:connector-curvature="0" />
    <path
       style="opacity:0.98999999;fill:#c8b7b7;stroke:#000000;stroke-width:5.71428585;stroke-miterlimit:4;stroke-opacity:1;stroke-dasharray:none"
       d="m 523.81168,871.67532 39.31328,-39.25312 -59.31114,-59.31114 -59.31116,-59.31114 37.1503,0 37.15028,0 39.98086,40 c 21.98948,22 40.63234,40 41.42858,40 0.79624,0 19.4391,-18 41.42856,-40 l 39.98088,-40 37.14854,0 37.14854,0 -98.56366,98.57142 -98.56366,98.57144 -37.14674,-0.008 -37.14674,-0.008 39.31328,-39.25312 z"
       id="path3063"
       inkscape:connector-curvature="0" />
    <path
       style="opacity:0.98999999;fill:#e6e6e6;stroke:#000000;stroke-width:5.71428585;stroke-miterlimit:4;stroke-opacity:1;stroke-dasharray:none"
       d="m 301.64124,730.94278 -18.54406,-18.58532 18.57144,-18.57142 18.57142,-18.57144 18.54406,18.58532 18.54406,18.58532 -18.57142,18.57142 -18.57142,18.57144 -18.54408,-18.58532 z"
       id="path3084"
       inkscape:connector-curvature="0" />
    <path
       style="fill:none;stroke:#000000;stroke-width:2px;stroke-linecap:butt;stroke-linejoin:miter;stroke-opacity:1"
       d="m 720,592.21626 -120,120 80,0"
       id="path3090"
       inkscape:connector-curvature="0" />
    <path
       style="fill:none;stroke:#000000;stroke-width:2px;stroke-linecap:butt;stroke-linejoin:miter;stroke-opacity:1"
       d="m 620,772.21626 -20,-20 40,0"
       id="path3094"
       inkscape:connector-curvature="0" />
    <path
       style="fill:none;stroke:#000000;stroke-width:2px;stroke-linecap:butt;stroke-linejoin:miter;stroke-opacity:1"
       d="m 580,652.21626 -60,60"
       id="path3098"
       inkscape:connector-curvature="0" />
    <path
       style="fill:none;stroke:#000000;stroke-width:2px;stroke-linecap:butt;stroke-linejoin:miter;stroke-opacity:1"
       d="m 720,592.21626 -80,0"
       id="path3104"
       inkscape:connector-curvature="0" />
    <path
       style="fill:none;stroke:#000000;stroke-width:2px;stroke-linecap:butt;stroke-linejoin:miter;stroke-opacity:1"
       d="m 640,592.21626 -60,60"
       id="path3106"
       inkscape:connector-curvature="0" />
    <path
       style="fill:none;stroke:#000000;stroke-width:2px;stroke-linecap:butt;stroke-linejoin:miter;stroke-opacity:1"
       d="m 660,812.21626 60,60 -80,0 -20,-20"
       id="path3108"
       inkscape:connector-curvature="0" />
    <path
       style="fill:none;stroke:#000000;stroke-width:2px;stroke-linecap:butt;stroke-linejoin:miter;stroke-opacity:1"
       d="m 360,632.21626 160,-160 120,120"
       id="path3110"
       inkscape:connector-curvature="0" />
    <path
       style="fill:none;stroke:#000000;stroke-width:2px;stroke-linecap:butt;stroke-linejoin:miter;stroke-opacity:1"
       d="m 680,632.21626 80,80"
       id="path3112"
       inkscape:connector-curvature="0" />
    <path
       style="opacity:0.98999999;fill:#e3dbdb;stroke:#000000;stroke-width:5.71428585;stroke-miterlimit:4;stroke-opacity:1;stroke-dasharray:none"
       d="m 560.92514,750.22666 -37.83876,-37.85896 59.27098,-59.2839 59.27098,-59.28388 37.14294,0 37.14292,0 -59.98724,60 -59.98724,60 39.973,0 39.97302,0 -18.5302,18.57142 -18.5302,18.57144 -21.41344,0 -21.41342,0 10.63622,10.7077 10.63624,10.7077 -7.76604,7.86372 c -4.27132,4.32506 -8.43542,7.86374 -9.25354,7.86374 -0.8181,0 -18.5149,-17.03654 -39.32622,-37.85898 z"
       id="path3114"
       inkscape:connector-curvature="0" />
    <path
       style="opacity:0.98999999;fill:#e3dbdb;stroke:#000000;stroke-width:5.71428585;stroke-miterlimit:4;stroke-opacity:1;stroke-dasharray:none"
       d="m 632.33834,861.63972 -9.22036,-9.30306 18.5576,-18.55758 18.55758,-18.5576 27.83316,27.86066 27.83316,27.86064 -37.17038,0 -37.17038,0 -9.22038,-9.30306 z"
       id="path3116"
       inkscape:connector-curvature="0" />
    <path
       style="fill:none;stroke:#000000;stroke-width:2px;stroke-linecap:butt;stroke-linejoin:miter;stroke-opacity:1"
       d="m 400,672.21626 120,-120 80,80"
       id="path3118"
       inkscape:connector-curvature="0" />
    <path
       style="fill:none;stroke:#000000;stroke-width:2px;stroke-linecap:butt;stroke-linejoin:miter;stroke-opacity:1"
       d="m 640,672.21626 40,40"
       id="path3120"
       inkscape:connector-curvature="0" />
    <path
       style="opacity:0.98999999;fill:#e6e6e6;stroke:#000000;stroke-width:5.71428585;stroke-miterlimit:4;stroke-opacity:1;stroke-dasharray:none"
       d="m 381.64056,650.9421 -18.54524,-18.5865 78.55516,-78.56492 78.55516,-78.5649 58.5705,58.5705 58.5705,58.5705 -18.57514,18.57512 -18.57512,18.57514 -39.98396,-40.00308 -39.98394,-40.0031 -60.02134,60.00888 -60.02132,60.00886 -18.54526,-18.5865 z"
       id="path3128"
       inkscape:connector-curvature="0" />
    <path
       style="opacity:0.98999999;fill:#e6e6e6;stroke:#000000;stroke-width:5.71428585;stroke-miterlimit:4;stroke-opacity:1;stroke-dasharray:none"
       d="m 662.34898,691.6505 -19.25256,-19.29228 18.56656,-18.56654 18.56654,-18.56656 37.83862,37.85882 37.8386,37.85884 -37.1526,0 -37.15258,0 -19.25258,-19.29228 z"
       id="path3130"
       inkscape:connector-curvature="0" />
  </g>
</svg>
