<?xml version="1.0" encoding="UTF-8" standalone="no"?>
<!-- Created with Inkscape (http://www.inkscape.org/) -->

<svg
   xmlns:dc="http://purl.org/dc/elements/1.1/"
   xmlns:cc="http://creativecommons.org/ns#"
   xmlns:rdf="http://www.w3.org/1999/02/22-rdf-syntax-ns#"
   xmlns:svg="http://www.w3.org/2000/svg"
   xmlns="http://www.w3.org/2000/svg"
   xmlns:sodipodi="http://sodipodi.sourceforge.net/DTD/sodipodi-0.dtd"
   xmlns:inkscape="http://www.inkscape.org/namespaces/inkscape"
   width="1052.3622"
   height="744.09448"
   id="svg2"
   version="1.1"
   inkscape:version="0.48.3.1 r9886"
   sodipodi:docname="slayer-logo.svg">
  <defs
     id="defs4" />
  <sodipodi:namedview
     id="base"
     pagecolor="#ffffff"
     bordercolor="#666666"
     borderopacity="1.0"
     inkscape:pageopacity="0.0"
     inkscape:pageshadow="2"
     inkscape:zoom="0.7"
     inkscape:cx="599.82379"
     inkscape:cy="298.48711"
     inkscape:document-units="px"
     inkscape:current-layer="layer1"
     showgrid="true"
     inkscape:window-width="1024"
     inkscape:window-height="744"
     inkscape:window-x="0"
     inkscape:window-y="24"
     inkscape:window-maximized="1">
    <inkscape:grid
       type="xygrid"
       id="grid2985"
       empspacing="5"
       visible="true"
       enabled="true"
       snapvisiblegridlinesonly="true" />
  </sodipodi:namedview>
  <metadata
     id="metadata7">
    <rdf:RDF>
      <cc:Work
         rdf:about="">
        <dc:format>image/svg+xml</dc:format>
        <dc:type
           rdf:resource="http://purl.org/dc/dcmitype/StillImage" />
        <dc:title></dc:title>
      </cc:Work>
    </rdf:RDF>
  </metadata>
  <g
     inkscape:label="Layer 1"
     inkscape:groupmode="layer"
     id="layer1"
     transform="translate(0,-308.2677)">
    <path
       style="fill:none;stroke:#000000;stroke-width:2px;stroke-linecap:butt;stroke-linejoin:miter;stroke-opacity:1"
       d="m 360,512.36218 -160,160"
       id="path2987"
       inkscape:connector-curvature="0" />
    <path
       style="fill:none;stroke:#000000;stroke-width:2px;stroke-linecap:butt;stroke-linejoin:miter;stroke-opacity:1"
       d="m 360,512.36218 0,80 -80,80 80,80"
       id="path2989"
       inkscape:connector-curvature="0" />
    <path
       style="fill:none;stroke:#000000;stroke-width:2px;stroke-linecap:butt;stroke-linejoin:miter;stroke-opacity:1"
       d="m 200,672.36218 80,80 -80,80"
       id="path2991"
       inkscape:connector-curvature="0" />
    <path
       style="fill:none;stroke:#000000;stroke-width:2px;stroke-linecap:butt;stroke-linejoin:miter;stroke-opacity:1"
       d="m 360,752.36218 -80,80 -80,0"
       id="path2993"
       inkscape:connector-curvature="0" />
    <path
       style="fill:none;stroke:#000000;stroke-width:2px;stroke-linecap:butt;stroke-linejoin:miter;stroke-opacity:1"
       d="m 360,832.36218 80,-80 80,80"
       id="path2995"
       inkscape:connector-curvature="0" />
    <path
       style="fill:none;stroke:#000000;stroke-width:2px;stroke-linecap:butt;stroke-linejoin:miter;stroke-opacity:1"
       d="m 600,832.36218 -240,-240"
       id="path2997"
       inkscape:connector-curvature="0" />
    <path
       style="fill:none;stroke:#000000;stroke-width:2px;stroke-linecap:butt;stroke-linejoin:miter;stroke-opacity:1"
       d="m 320,632.36218 80,80"
       id="path2999"
       inkscape:connector-curvature="0" />
    <path
       style="fill:none;stroke:#000000;stroke-width:2px;stroke-linecap:butt;stroke-linejoin:miter;stroke-opacity:1"
       d="m 360,752.36218 40,-40"
       id="path3001"
       inkscape:connector-curvature="0" />
    <path
       style="fill:none;stroke:#000000;stroke-width:2px;stroke-linecap:butt;stroke-linejoin:miter;stroke-opacity:1"
       d="m 280,832.36218 80,0"
       id="path3003"
       inkscape:connector-curvature="0" />
    <path
       style="fill:none;stroke:#000000;stroke-width:2px;stroke-linecap:butt;stroke-linejoin:miter;stroke-opacity:1"
       d="m 520,832.36218 80,0"
       id="path3005"
       inkscape:connector-curvature="0" />
    <path
       style="fill:none;stroke:#000000;stroke-width:2px;stroke-linecap:butt;stroke-linejoin:miter;stroke-opacity:1"
       d="m 440,832.36218 40,-40"
       id="path3007"
       inkscape:connector-curvature="0" />
    <path
       style="fill:none;stroke:#000000;stroke-width:2px;stroke-linecap:butt;stroke-linejoin:miter;stroke-opacity:1"
       d="m 360,832.36218 80,0"
       id="path3009"
       inkscape:connector-curvature="0" />
    <path
       style="fill:none;stroke:#000000;stroke-width:2px;stroke-linecap:butt;stroke-linejoin:miter;stroke-opacity:1"
       d="m 520,752.36218 160,-160 -80,0 -80,80 -80,-80 -80,0"
       id="path3011"
       inkscape:connector-curvature="0" />
    <path
       style="fill:none;stroke:#000000;stroke-width:2px;stroke-linecap:butt;stroke-linejoin:miter;stroke-opacity:1"
       d="m 680,592.36218 0,-80 160,160 -80,80 80,80 -80,0 -80,-80 80,-80 z"
       id="path3013"
       inkscape:connector-curvature="0" />
    <path
       style="fill:none;stroke:#000000;stroke-width:2px;stroke-linecap:butt;stroke-linejoin:miter;stroke-opacity:1"
       d="m 720,632.36218 -80,80 -20,20 80,0"
       id="path3015"
       inkscape:connector-curvature="0" />
    <path
       style="fill:none;stroke:#000000;stroke-width:2px;stroke-linecap:butt;stroke-linejoin:miter;stroke-opacity:1"
       d="m 700,772.36218 -80,0 100,100"
       id="path3017"
       inkscape:connector-curvature="0" />
    <path
       style="fill:none;stroke:#000000;stroke-width:2px;stroke-linecap:butt;stroke-linejoin:miter;stroke-opacity:1"
       d="m 600,832.36218 40,40 80,0"
       id="path3019"
       inkscape:connector-curvature="0" />
    <path
       style="fill:none;stroke:#000000;stroke-width:2px;stroke-linecap:butt;stroke-linejoin:miter;stroke-opacity:1"
       d="m 720,632.36218 -80,0"
       id="path3021"
       inkscape:connector-curvature="0" />
    <path
       style="fill:none;stroke:#000000;stroke-width:2px;stroke-linecap:butt;stroke-linejoin:miter;stroke-opacity:1"
       d="m 320,712.36218 40,-40"
       id="path3023"
       inkscape:connector-curvature="0" />
    <path
       style="fill:none;stroke:#000000;stroke-width:2px;stroke-linecap:butt;stroke-linejoin:miter;stroke-opacity:1"
       d="m 440,592.36218 80,-80 80,80"
       id="path3025"
       inkscape:connector-curvature="0" />
    <path
       style="fill:none;stroke:#000000;stroke-width:2px;stroke-linecap:butt;stroke-linejoin:miter;stroke-opacity:1"
       d="m 680,672.36218 40,40"
       id="path3027"
       inkscape:connector-curvature="0" />
    <path
       style="fill:none;stroke:#000000;stroke-width:2px;stroke-linecap:butt;stroke-linejoin:miter;stroke-opacity:1"
       d="m 660,732.36218 -20,-20"
       id="path3029"
       inkscape:connector-curvature="0" />
    <path
       style="fill:none;stroke:#000000;stroke-width:2px;stroke-linecap:butt;stroke-linejoin:miter;stroke-opacity:1"
       d="m 480,632.36218 40,-40 40,40"
       id="path3031"
       inkscape:connector-curvature="0" />
    <path
       style="opacity:0.98999999;fill:#916f6f;stroke:#000000;stroke-width:5.71428585;stroke-miterlimit:4;stroke-opacity:1;stroke-dasharray:none"
       d="m 243.17304,791.35484 38.92232,-38.92232 -39.99486,-40.01332 -39.99486,-40.01334 77.85498,-77.84516 77.85498,-77.84514 0,37.8618 0,37.86178 -40.00016,39.98104 -40.00016,39.98104 40.0004,40.01888 40.00042,40.0189 -38.93838,38.91906 -38.9384,38.9191 -37.8443,0 -37.8443,0 38.92232,-38.92232 z"
       id="path3033"
       inkscape:connector-curvature="0" />
    <path
       style="opacity:0.98999999;fill:#916f6f;stroke:#000000;stroke-width:5.71428585;stroke-miterlimit:4;stroke-opacity:1;stroke-dasharray:none"
       d="m 721.02014,791.33902 -38.91882,-38.93816 40.00016,-39.98102 40.00016,-39.98102 -39.93594,-40.0094 -39.93596,-40.0094 -0.0956,-37.85716 -0.0956,-37.85714 77.88632,77.85008 77.88632,77.85006 -39.99486,40.01334 -39.99486,40.01332 38.92232,38.92232 38.9223,38.92232 -37.8636,0 -37.8636,0 -38.91884,-38.93814 z"
       id="path3035"
       inkscape:connector-curvature="0" />
    <path
       style="opacity:0.98999999;fill:#e3dbdb;stroke:#000000;stroke-width:5.71428585;stroke-miterlimit:4;stroke-opacity:1;stroke-dasharray:none"
       d="m 343.05842,772.41558 c 31.29502,-31.82386 57.14002,-58.57954 57.43334,-59.45704 0.29332,-0.8775 -17.06012,-19.19762 -38.5632,-40.71136 l -39.09648,-39.11588 18.92316,-18.92316 18.92316,-18.92316 117.49608,117.49608 117.4961,117.4961 -37.86564,0 -37.86562,0 -39.98102,-40.00016 -39.98104,-40.00018 -40.01864,40.00018 -40.01864,40.00016 -36.8908,0 -36.8908,0 56.90004,-57.86158 z"
       id="path3037"
       inkscape:connector-curvature="0" />
    <path
       style="opacity:0.98999999;fill:#e3dbdb;stroke:#000000;stroke-width:5.71428585;stroke-miterlimit:4;stroke-opacity:1;stroke-dasharray:none"
       d="m 581.51212,810.86466 -58.44634,-59.3961 58.4398,-58.45284 58.43982,-58.45286 37.85602,0 37.85602,0 -49.9847,50 -49.98468,50 39.23334,0 39.23332,0 -8.16954,8.25572 c -4.49328,4.54064 -8.16958,8.86128 -8.16958,9.60144 0,0.74014 3.6763,5.06078 8.16958,9.60142 l 8.16954,8.25572 -39.23332,0 -39.23334,0 49.98468,50 49.9847,50 -37.8495,-0.008 -37.84948,-0.008 -58.44634,-59.3961 z"
       id="path3039"
       inkscape:connector-curvature="0" />
    <path
       style="opacity:0.98999999;fill:#ac9393;stroke:#000000;stroke-width:5.71428585;stroke-miterlimit:4;stroke-opacity:1;stroke-dasharray:none"
       d="m 442.70822,671.59834 -77.02556,-77.03548 37.14746,0 37.14748,0 39.98102,40.00018 39.98104,40.00016 40.043,-40.02452 40.043,-40.02452 37.31492,0.3815 37.31494,0.3815 -77.46088,76.67832 -77.46086,76.67832 -77.02556,-77.03546 z"
       id="path3041"
       inkscape:connector-curvature="0" />
    <path
       style="opacity:0.98999999;fill:#ac9393;stroke:#000000;stroke-width:5.71428585;stroke-miterlimit:4;stroke-opacity:1;stroke-dasharray:none"
       d="m 402.81738,793.13252 37.12404,-37.14464 18.56626,18.56626 18.56626,18.56626 -18.53712,18.57838 -18.53714,18.57838 -37.15316,0 -37.15318,0 37.12404,-37.14464 z"
       id="path3043"
       inkscape:connector-curvature="0" />
    <path
       style="opacity:0.98999999;fill:#c8b7b7;stroke:#000000;stroke-width:5.71428585;stroke-miterlimit:4;stroke-opacity:1;stroke-dasharray:none"
       d="m 461.38168,610.2718 -18.53554,-18.57678 38.54956,-38.5694 38.54956,-38.5694 38.57302,38.57302 38.57302,38.57302 -18.91736,18.91736 -18.91736,18.91736 -19.66822,-19.6306 -19.66824,-19.63058 -19.2467,19.2864 c -10.58568,10.6075 -19.58634,19.28638 -20.00144,19.28638 -0.41512,0 -9.09574,-8.35954 -19.2903,-18.57678 z"
       id="path3045"
       inkscape:connector-curvature="0" />
    <path
       style="opacity:0.98999999;fill:#c8b7b7;stroke:#000000;stroke-width:5.71428585;stroke-miterlimit:4;stroke-opacity:1;stroke-dasharray:none"
       d="m 341.38022,730.27034 -18.53698,-18.57824 18.26734,-18.20748 18.26736,-18.20746 17.79026,18.16118 c 9.78464,9.98864 17.79026,18.67686 17.79026,19.30714 0,0.63028 -7.88428,9.01132 -17.52062,18.62454 l -17.52062,17.47854 -18.537,-18.57822 z"
       id="path3047"
       inkscape:connector-curvature="0" />
    <path
       style="opacity:0.98999999;fill:#c8b7b7;stroke:#000000;stroke-width:5.71428585;stroke-miterlimit:4;stroke-opacity:1;stroke-dasharray:none"
       d="m 651.36814,721.68664 -8.50088,-8.59052 18.9026,-18.90262 18.90262,-18.9026 18.1902,18.1902 18.19022,18.1902 -9.22024,9.30294 -9.22024,9.30292 -19.3717,0 -19.3717,0 -8.50088,-8.59052 z"
       id="path3049"
       inkscape:connector-curvature="0" />
  </g>
</svg>
